<svg width="1441" height="8300" viewBox="0 0 1441 8300" fill="none" xmlns="http://www.w3.org/2000/svg">
<path d="M1440 3412.79L1432.34 3482.56C1424.73 3551.89 1325.49 3556.15 1311.96 3487.73V3487.73C1300.4 3429.29 1220.51 3420.42 1196.42 3474.9L1131 3622.82L1111.09 3673.35C1067.63 3783.69 919.914 3803.43 849 3708.38V3708.38L763.378 3587.95C711.242 3514.62 607.544 3501.55 538.844 3559.66L492.448 3598.9C430.837 3651.01 336.043 3623.73 311.559 3546.84L280.42 3449.05C260.516 3386.54 174.411 3380.56 146.059 3439.72V3439.72C120.743 3492.54 46.4606 3495.04 17.6504 3444.04L0 3412.79V4853.11C0 4909.17 77.1965 4924.35 98.4269 4872.47V4872.47C113.339 4836.03 162.12 4829.42 186.19 4860.58L262.008 4958.74C312.296 5023.84 411.154 5021.95 458.913 4954.97L550.85 4826.03C629.919 4715.14 795.31 4717.07 871.774 4829.77L911.524 4888.36C962.423 4963.38 1070.15 4970.9 1130.98 4903.68L1207.62 4818.98C1239.16 4784.12 1296.11 4793.1 1315.39 4835.97V4835.97C1344.2 4900.02 1440 4879.47 1440 4809.23V3412.79Z" fill="#30425B"/>
<path d="M1440 2390.79L1432.34 2460.55C1424.73 2529.89 1325.49 2534.15 1311.96 2465.73V2465.73C1300.4 2407.29 1220.51 2398.42 1196.42 2452.9L1131 2600.82L1111.09 2651.35C1067.63 2761.69 919.914 2781.43 849 2686.38V2686.38L763.378 2565.95C711.242 2492.62 607.544 2479.55 538.844 2537.66L492.448 2576.9C430.837 2629.01 336.043 2601.73 311.559 2524.84L280.42 2427.05C260.516 2364.53 174.411 2358.56 146.059 2417.72V2417.72C120.743 2470.54 46.4606 2473.04 17.6504 2422.04L0 2390.79V3831.11C0 3887.17 77.1965 3902.35 98.4269 3850.47V3850.47C113.339 3814.03 162.12 3807.42 186.19 3838.58L262.008 3936.74C312.296 4001.84 411.154 3999.95 458.913 3932.97L550.85 3804.03C629.919 3693.14 795.31 3695.07 871.774 3807.77L911.524 3866.36C962.423 3941.38 1070.15 3948.9 1130.98 3881.68L1207.62 3796.98C1239.16 3762.12 1296.11 3771.1 1315.39 3813.97V3813.97C1344.2 3878.02 1440 3857.46 1440 3787.23V2390.79Z" fill="#2D3D54"/>
<path d="M1440 4484.79L1432.34 4554.56C1424.73 4623.89 1325.49 4628.15 1311.96 4559.73V4559.73C1300.4 4501.29 1220.51 4492.42 1196.42 4546.9L1131 4694.82L1111.09 4745.35C1067.63 4855.69 919.914 4875.43 849 4780.39V4780.39L763.378 4659.95C711.242 4586.62 607.544 4573.55 538.844 4631.66L492.448 4670.9C430.837 4723.01 336.043 4695.73 311.559 4618.84L280.42 4521.05C260.516 4458.54 174.411 4452.56 146.059 4511.72V4511.72C120.743 4564.54 46.4606 4567.04 17.6504 4516.04L0 4484.79V5925.11C0 5981.17 77.1965 5996.35 98.4269 5944.47V5944.47C113.339 5908.03 162.12 5901.42 186.19 5932.59L262.008 6030.74C312.296 6095.84 411.154 6093.95 458.913 6026.97L550.85 5898.03C629.919 5787.14 795.31 5789.07 871.774 5901.77L911.524 5960.36C962.423 6035.38 1070.15 6042.9 1130.98 5975.68L1207.62 5890.98C1239.16 5856.12 1296.11 5865.1 1315.39 5907.97V5907.97C1344.2 5972.02 1440 5951.47 1440 5881.23V4484.79Z" fill="#2D3D54"/>
<path d="M1440 1301.79L1432.34 1371.56C1424.73 1440.89 1325.49 1445.15 1311.96 1376.73V1376.73C1300.4 1318.29 1220.51 1309.42 1196.42 1363.9L1131 1511.82L1111.09 1562.35C1067.63 1672.69 919.914 1692.43 849 1597.39V1597.39L763.378 1476.95C711.242 1403.62 607.544 1390.55 538.844 1448.66L492.448 1487.9C430.837 1540.01 336.043 1512.73 311.559 1435.84L280.42 1338.05C260.516 1275.54 174.411 1269.56 146.059 1328.72V1328.72C120.743 1381.54 46.4606 1384.04 17.6504 1333.04L0 1301.79V2742.11C0 2798.17 77.1965 2813.35 98.4269 2761.47V2761.47C113.339 2725.03 162.12 2718.42 186.19 2749.58L262.008 2847.74C312.296 2912.84 411.154 2910.95 458.913 2843.97L550.85 2715.03C629.919 2604.14 795.31 2606.07 871.774 2718.77L911.524 2777.36C962.423 2852.38 1070.15 2859.9 1130.98 2792.68L1207.62 2707.98C1239.16 2673.12 1296.11 2682.1 1315.39 2724.97V2724.97C1344.2 2789.02 1440 2768.47 1440 2698.23V1301.79Z" fill="#29374D"/>
<path d="M1440 5557.79L1432.34 5627.56C1424.73 5696.89 1325.49 5701.15 1311.96 5632.73V5632.73C1300.4 5574.29 1220.51 5565.42 1196.42 5619.9L1131 5767.82L1111.09 5818.35C1067.63 5928.69 919.914 5948.43 849 5853.39V5853.39L763.378 5732.95C711.242 5659.62 607.544 5646.55 538.844 5704.66L492.448 5743.9C430.837 5796.01 336.043 5768.73 311.559 5691.84L280.42 5594.05C260.516 5531.54 174.411 5525.56 146.059 5584.72V5584.72C120.743 5637.54 46.4606 5640.04 17.6504 5589.04L0 5557.79V6998.11C0 7054.17 77.1965 7069.35 98.4269 7017.47V7017.47C113.339 6981.03 162.12 6974.42 186.19 7005.59L262.008 7103.74C312.296 7168.84 411.154 7166.95 458.913 7099.97L550.85 6971.03C629.919 6860.14 795.31 6862.07 871.774 6974.77L911.524 7033.36C962.423 7108.38 1070.15 7115.9 1130.98 7048.68L1207.62 6963.98C1239.16 6929.12 1296.11 6938.1 1315.39 6980.97V6980.97C1344.2 7045.02 1440 7024.47 1440 6954.23V5557.79Z" fill="#29374D"/>
<path d="M1440 370.8L1432.45 432.104C1424.04 500.306 1326.91 504.962 1312.02 437.877V437.877C1299.52 381.556 1223.16 372.26 1197.51 423.938L1131 557.972L1113.84 596.794C1066.67 703.51 923.897 723.69 849 634.227V634.227L765.345 529.364C710.32 460.391 610.388 447.757 539.929 500.865L486.399 541.214C425.19 587.35 336.796 560.889 311.006 488.71L281.103 405.018C259.495 344.543 176.443 338.292 146.027 394.852V394.852C119.177 444.78 48.4971 447.31 18.1468 399.429L0 370.8V1649.82C0 1705.24 75.4294 1721.73 98.5554 1671.37V1671.37C114.221 1637.25 159.905 1630.73 184.494 1659.09L262.252 1748.8C314.673 1809.28 409.097 1807.43 459.098 1744.93L551.36 1629.62C633.963 1526.38 791.602 1528.28 871.691 1633.48L910.18 1684.04C963.93 1754.64 1067.45 1762.02 1130.67 1699.76L1210.11 1621.52C1241.94 1590.17 1295.09 1598.9 1315.22 1638.79V1638.79C1346.51 1700.77 1440 1678.51 1440 1609.08V370.8Z" fill="#253143"/>
<path d="M1441 6655.8L1433.45 6717.1C1425.04 6785.31 1327.91 6789.96 1313.02 6722.88V6722.88C1300.52 6666.56 1224.16 6657.26 1198.51 6708.94L1132 6842.97L1114.84 6881.79C1067.67 6988.51 924.897 7008.69 850 6919.23V6919.23L766.345 6814.36C711.32 6745.39 611.388 6732.76 540.929 6785.87L487.399 6826.21C426.19 6872.35 337.796 6845.89 312.006 6773.71L282.103 6690.02C260.495 6629.54 177.443 6623.29 147.027 6679.85V6679.85C120.177 6729.78 49.4971 6732.31 19.1468 6684.43L1 6655.8V7934.82C1 7990.24 76.4294 8006.73 99.5554 7956.37V7956.37C115.221 7922.25 160.905 7915.73 185.494 7944.09L263.252 8033.81C315.673 8094.28 410.097 8092.43 460.098 8029.93L552.36 7914.62C634.963 7811.38 792.602 7813.28 872.691 7918.48L911.18 7969.04C964.93 8039.64 1068.45 8047.02 1131.67 7984.76L1211.11 7906.52C1242.94 7875.17 1296.09 7883.9 1316.22 7923.79V7923.79C1347.51 7985.77 1441 7963.51 1441 7894.08V6655.8Z" fill="#253143"/>
<path d="M1441 7561.83L1435.11 7585.11C1420.15 7644.28 1339.03 7651.59 1313.72 7596.04V7596.04C1295.14 7555.26 1241.68 7545.33 1209.7 7576.73L1132 7653.01V7653.01C1062.32 7729.82 948.42 7747.44 858.788 7695.28L850 7690.16L775.412 7644.61C707.241 7602.98 623.789 7594.76 548.807 7622.3L452.531 7657.65C400.1 7676.91 341.256 7659.15 308.224 7614.11L289.28 7588.28C255.44 7542.14 189.108 7535.42 146.701 7573.84V7573.84C112.133 7605.16 60.1114 7607.26 23.1284 7578.83L1 7561.83V8153.13C1 8205.91 65.5346 8231.53 101.736 8193.12V8193.12C120.105 8173.63 149.389 8169.16 172.735 8182.28L265.104 8234.2C326.189 8268.54 401.047 8267.23 460.898 8230.79L555.588 8173.13C653.138 8113.73 776.006 8115.11 872.205 8176.67L903.195 8196.5C971.148 8239.98 1056.76 8245.21 1129.5 8210.31L1228.23 8162.94C1256.65 8149.3 1290.55 8154.78 1313.22 8176.67V8176.67C1361.1 8222.88 1441 8188.95 1441 8122.41V7561.83Z" fill="#222D3D"/>
<path d="M1440 105L1429.77 145.401C1414.01 207.666 1332.02 221.965 1296.11 168.709V168.709C1274.76 137.044 1232.89 126.715 1199.26 144.821L1154.35 169C1138.94 177.299 1125.35 188.61 1114.4 202.262L1109.2 208.74C1053.81 277.755 955.023 293.323 881.096 244.688L849 223.573L791.136 196.106C715.635 160.267 632.222 144.335 548.827 149.825L363 162.058H269.5L143.058 155.963C105.148 154.135 67.5781 147.91 31.1048 137.411L0 128.457V756.632C0 809.594 66.2169 833.577 100.132 792.898V792.898C118.359 771.036 149.98 766.098 174.003 781.363L263.785 838.412C323.942 876.637 401.118 875.216 459.828 834.803L554.104 769.908C649.966 703.921 776.984 705.408 871.274 773.622L903.329 796.812C969.443 844.642 1057.13 850.317 1128.86 811.41L1224.34 759.617C1253.82 743.627 1290.4 749.755 1313.05 774.479V774.479C1358.08 823.614 1440 791.756 1440 725.108V105Z" fill="#222D3D"/>
<rect y="8093" width="1440" height="207" fill="#222D3D"/>
<rect width="1440" height="288" fill="#222D3D"/>
</svg>
