<svg width="1441" height="9269" viewBox="0 0 1441 9269" fill="none" xmlns="http://www.w3.org/2000/svg">
<g clip-path="url(#clip0_468_190)">
<rect width="1441" height="9269" fill="white"/>
<path d="M1441 8496H0V9185.38C0 9217.29 37.8784 9234.04 61.4843 9212.57V9212.57C68.2505 9206.41 77.0689 9203 86.2161 9203H1350.95C1360.33 9203 1369.4 9206.39 1376.49 9212.53V9212.53C1401.72 9234.42 1441 9216.5 1441 9183.1V8496Z" fill="#222D3D"/>
<path d="M1441 7370H0V8669.15C0 8693.92 -35.8225 8697.3 -40.4602 8672.97V8672.97C-44.2347 8653.18 -20.0789 8640.47 -5.90241 8654.8L41.5 8702.7L61.9971 8720.17C97.3745 8750.32 151.344 8741.58 175.399 8701.81L176.843 8699.42C178.94 8695.95 180.623 8692.25 181.856 8688.39V8688.39C196.168 8643.58 258.016 8639.59 277.971 8682.18L308.656 8747.69C333.82 8801.41 406.617 8810.08 443.693 8763.77L558.75 8620.07C637.873 8521.25 788.789 8523.07 865.505 8623.77L880.077 8642.9C950.186 8734.92 1085.14 8744.54 1167.59 8663.39V8663.39C1230.83 8601.16 1328.46 8590.33 1403.8 8637.21L1531.05 8716.39C1560.89 8734.95 1567.95 8775.34 1546.18 8802.92V8802.92C1511.55 8846.8 1441 8822.32 1441 8766.42V7370Z" fill="#253143"/>
<path d="M1441 6216H0V7515.15C0 7539.92 -35.8225 7543.3 -40.4602 7518.97V7518.97C-44.2347 7499.18 -20.0789 7486.47 -5.90241 7500.8L41.5 7548.7L73.3374 7575.83C102.771 7600.92 147.674 7593.65 167.688 7560.56L168.194 7559.72C175.8 7547.14 187.748 7537.79 201.782 7533.42V7533.42C228.077 7525.23 256.573 7535.96 270.951 7559.45L287.774 7586.93C324.502 7646.93 409.643 7652.3 453.613 7597.38L551.746 7474.82C634.427 7371.55 792.13 7373.45 872.296 7478.68L880.077 7488.9C950.186 7580.92 1085.14 7590.54 1167.59 7509.39V7509.39C1230.83 7447.16 1328.46 7436.33 1403.8 7483.21L1531.05 7562.39C1560.89 7580.95 1567.95 7621.34 1546.18 7648.92V7648.92C1511.55 7692.8 1441 7668.32 1441 7612.42V6216Z" fill="#29374C"/>
<path d="M1441 5055H0V6354.15C0 6378.92 -35.8225 6382.3 -40.4602 6357.97V6357.97C-44.2347 6338.18 -20.0789 6325.47 -5.90241 6339.8L41.5 6387.7L102.597 6439.77C120.418 6454.96 140.55 6467.2 162.234 6476.04V6476.04C246.445 6510.36 343.094 6489.29 405.384 6423.04L475 6349L539.922 6284.36C632.371 6192.32 784.725 6202.73 863.783 6306.51L880.077 6327.9C950.186 6419.92 1085.14 6429.54 1167.59 6348.39V6348.39C1230.83 6286.16 1328.46 6275.33 1403.8 6322.21L1531.05 6401.39C1560.89 6419.95 1567.95 6460.34 1546.18 6487.92V6487.92C1511.55 6531.8 1441 6507.32 1441 6451.42V5055Z" fill="#2D3D54"/>
<path d="M1441 3883H0V5182.15C0 5206.92 -35.8225 5210.3 -40.4602 5185.97V5185.97C-44.2347 5166.18 -20.0789 5153.47 -5.90241 5167.8L41.5 5215.7L118.988 5304.08C162.101 5353.26 239.112 5351.75 280.268 5300.93L285.063 5295.01C286.683 5293.01 288.081 5290.84 289.232 5288.54V5288.54C299.998 5267 328.608 5262.18 345.84 5278.99L427.597 5358.76C488.923 5418.59 591.482 5395.92 621.87 5315.81L638.636 5271.61C675.661 5174.01 798.615 5143.18 877.313 5211.77L895.672 5227.77C961.422 5285.07 1060.21 5282.08 1122.37 5220.9L1167.3 5176.68C1230.71 5114.28 1328.61 5103.42 1404.14 5150.42L1531.05 5229.39C1560.89 5247.95 1567.95 5288.34 1546.18 5315.92V5315.92C1511.55 5359.8 1441 5335.32 1441 5279.42V3883Z" fill="#30425B"/>
<path d="M1441 3883H0V5182.15C0 5206.92 -35.8225 5210.3 -40.4602 5185.97V5185.97C-44.2347 5166.18 -20.0789 5153.47 -5.90241 5167.8L41.5 5215.7L118.988 5304.08C162.101 5353.26 239.112 5351.75 280.268 5300.93L285.063 5295.01C286.683 5293.01 288.081 5290.84 289.232 5288.54V5288.54C299.998 5267 328.608 5262.18 345.84 5278.99L427.597 5358.76C488.923 5418.59 591.482 5395.92 621.87 5315.81L638.636 5271.61C675.661 5174.01 798.615 5143.18 877.313 5211.77L895.672 5227.77C961.422 5285.07 1060.21 5282.08 1122.37 5220.9L1167.3 5176.68C1230.71 5114.28 1328.61 5103.42 1404.14 5150.42L1531.05 5229.39C1560.89 5247.95 1567.95 5288.34 1546.18 5315.92V5315.92C1511.55 5359.8 1441 5335.32 1441 5279.42V3883Z" fill="#30425B"/>
<path d="M1441 2723H0V4022.15C0 4046.92 -35.8225 4050.3 -40.4602 4025.97V4025.97C-44.2347 4006.18 -20.0789 3993.47 -5.90241 4007.8L41.5 4055.7L93.1623 4099.73C112.206 4115.96 141.259 4111.26 154.208 4089.85V4089.85C167.518 4067.84 197.681 4063.61 216.534 4081.1L277.691 4137.85C323.902 4180.73 396.803 4175.33 436.204 4126.12L551.746 3981.82C634.427 3878.55 792.13 3880.45 872.296 3985.68L880.077 3995.9C950.186 4087.92 1085.14 4097.54 1167.59 4016.39V4016.39C1230.83 3954.16 1328.46 3943.33 1403.8 3990.21L1531.05 4069.39C1560.89 4087.95 1567.95 4128.34 1546.18 4155.92V4155.92C1511.55 4199.8 1441 4175.32 1441 4119.42V2723Z" fill="#2D3D54"/>
<path d="M1441 1576H0V2875.15C0 2899.92 -35.8225 2903.3 -40.4602 2878.97V2878.97C-44.2347 2859.18 -20.0789 2846.47 -5.90241 2860.8L41.5 2908.7L74.57 2936.88C103.358 2961.42 147.275 2954.31 166.85 2921.94V2921.94C175.27 2908.02 188.875 2898.01 204.673 2894.12L207.955 2893.32C238.621 2885.76 270.524 2899.84 285.62 2927.58L294.998 2944.81C327.428 3004.41 410.094 3011.73 452.501 2958.77L552.987 2833.27C635.037 2730.79 791.538 2732.68 871.093 2837.1L880.077 2848.9C950.186 2940.92 1085.14 2950.54 1167.59 2869.39V2869.39C1230.83 2807.16 1328.46 2796.33 1403.8 2843.21L1531.05 2922.39C1560.89 2940.95 1567.95 2981.34 1546.18 3008.92V3008.92C1511.55 3052.8 1441 3028.32 1441 2972.42V1576Z" fill="#29374C"/>
<path d="M1441 416.8L1433.44 478.099C1425.03 546.341 1327.84 551.003 1312.93 483.879V483.879C1300.42 427.533 1224.02 418.228 1198.35 469.924L1131.79 603.972L1114.63 642.755C1067.41 749.523 924.562 769.719 849.59 680.227V680.227L765.888 575.379C710.808 506.385 610.828 493.745 540.311 546.861L486.7 587.242C425.453 633.376 337.034 606.902 311.219 534.7L281.303 451.031C259.669 390.526 176.578 384.27 146.128 440.853V440.853C119.251 490.798 48.543 493.329 18.1626 445.434L0 416.8V1715.95C0 1740.72 -35.8225 1744.1 -40.4602 1719.77V1719.77C-44.2347 1699.98 -20.0789 1687.27 -5.90241 1701.6L41.5 1749.5L63.7593 1768.47C98.2131 1797.84 150.774 1789.32 174.201 1750.59V1750.59C178.045 1744.23 182.831 1738.5 188.395 1733.58L193.334 1729.21C227.291 1699.19 275.567 1691.57 317.122 1709.66L390.254 1741.51C464.44 1773.81 551.073 1745.97 592.562 1676.51V1676.51C650.941 1578.76 789.607 1570.94 858.603 1661.51L882.901 1693.4C951.511 1783.46 1083.58 1792.88 1164.27 1713.46L1167.59 1710.19C1230.83 1647.96 1328.46 1637.13 1403.8 1684.01L1531.05 1763.19C1560.89 1781.75 1567.95 1822.14 1546.18 1849.72V1849.72C1511.55 1893.6 1441 1869.12 1441 1813.22V416.8Z" fill="#253143"/>
<path d="M1441 0.5L1067.8 81.6297C1017.91 92.4765 966.623 95.4579 915.807 90.4658L0 0.5V763.952C0 788.717 -35.8225 792.101 -40.4602 767.775V767.775C-44.2347 747.976 -20.0789 735.269 -5.90241 749.596L41.5 797.5L61.9971 814.969C97.3745 845.12 151.344 836.381 175.399 796.607L176.843 794.22C178.94 790.752 180.623 787.049 181.856 783.189V783.189C196.168 738.378 258.016 734.385 277.971 776.984L308.656 842.49C333.82 896.209 406.617 904.878 443.693 858.572L558.75 714.869C637.873 616.049 788.789 617.868 865.505 718.568L880.077 737.696C950.186 829.722 1085.14 839.343 1167.59 758.193V758.193C1230.83 695.957 1328.46 685.133 1403.8 732.006L1531.05 811.189C1560.89 829.754 1567.95 870.139 1546.18 897.724V897.724C1511.55 941.602 1441 917.116 1441 861.22V0.5Z" fill="#222D3D"/>
<rect width="1441" height="376" fill="#222D3D"/>
<rect y="8834" width="1441" height="435" fill="#222D3D"/>
</g>
<defs>
<clipPath id="clip0_468_190">
<rect width="1441" height="9269" fill="white"/>
</clipPath>
</defs>
</svg>
