<svg width="60" height="60" viewBox="0 0 60 60" fill="none" xmlns="http://www.w3.org/2000/svg">
<g clip-path="url(#clip0_46_4)">
<path fill-rule="evenodd" clip-rule="evenodd" d="M1.53769 35.3033L17.9275 57.5154L19.3884 58.2693L34.8001 43.1946C36.9319 42.5971 40.9763 40.5913 42.2649 36.8587L59.3867 24.1443L58.8513 22.5462L39.3462 2.74374L35.7196 5.58728C34.9692 5.32501 33.3472 4.80958 32.8621 4.84602C32.2557 4.89157 19.2188 12.2624 19.979 18.4782C20.0378 18.9582 15.117 15.0988 4.48192 29.1686L4.6756 32.2295L1.53769 35.3033ZM18.7401 54.9492L4.83119 36.1437L5.37656 35.6808L18.525 53.3139L19.7048 54.0131L18.7401 54.9492ZM17.9592 48.9855L7.77321 35.4645L7.66432 32.9181L17.6633 46.0114L17.9592 48.9855ZM19.0866 44.5102L7.80951 29.9801C15.2715 20.0343 20.2042 20.3786 21.7378 21.794C24.7673 25.0869 32.861 34.7541 32.7316 34.7467C28.539 34.5052 21.888 41.155 19.0866 44.5102ZM45.9804 21.6837C36.7846 26.7677 34.1798 31.7778 34.0269 33.6473C31.4562 31.0792 25.6658 23.7964 23.0331 20.6946C19.8287 16.9192 28.798 10.5825 33.3213 8.15067C35.2018 10.3663 46.1001 21.6175 45.9804 21.6837ZM20.5664 47.3591L20.8766 49.3828L32.5555 38.0628C33.9966 37.8952 34.6701 37.7564 34.6133 37.7236C30.5916 35.3996 23.4318 43.4805 20.5664 47.3591ZM48.396 23.5624C43.0216 26.8339 35.4367 31.9229 36.5562 36.0745C36.9379 35.7505 37.3658 34.4491 37.532 33.8389L50.5996 24.155L48.396 23.5624ZM47.6486 20.6782L36.2779 8.45598L38.6706 9.06406L50.3564 21.3121L47.6486 20.6782ZM54.5012 22.6027L39.1919 6.56916L39.8292 6.1455L56.09 22.9547L55.0675 23.8227L54.5012 22.6027Z" fill="#08D9D6"/>
<path d="M7.77321 35.4645L17.9592 48.9855L17.6633 46.0114L7.66432 32.9181L7.77321 35.4645Z" fill="black"/>
<path d="M7.80951 29.9801L19.0866 44.5102C21.888 41.155 28.539 34.5052 32.7316 34.7467C32.861 34.7541 24.7673 25.0869 21.7378 21.794C20.2042 20.3786 15.2715 20.0343 7.80951 29.9801Z" fill="black"/>
<path d="M34.0269 33.6473C34.1798 31.7778 36.7846 26.7677 45.9804 21.6837C46.1001 21.6175 35.2018 10.3663 33.3213 8.15067C28.798 10.5825 19.8287 16.9192 23.0331 20.6946C25.6658 23.7964 31.4562 31.0792 34.0269 33.6473Z" fill="black"/>
<path d="M36.2779 8.45598L47.6486 20.6782L50.3564 21.3121L38.6706 9.06406L36.2779 8.45598Z" fill="black"/>
<path d="M39.1919 6.56916L54.5012 22.6027L55.0675 23.8227L56.09 22.9547L39.8292 6.1455L39.1919 6.56916Z" fill="black"/>
<path d="M36.5562 36.0745C35.4367 31.9229 43.0216 26.8339 48.396 23.5624L50.5996 24.155L37.532 33.8389C37.3658 34.4491 36.9379 35.7505 36.5562 36.0745Z" fill="black"/>
<path d="M20.8766 49.3828L20.5664 47.3591C23.4318 43.4805 30.5916 35.3996 34.6133 37.7236C34.6701 37.7564 33.9966 37.8952 32.5555 38.0628L20.8766 49.3828Z" fill="black"/>
<path d="M4.83119 36.1437L18.7401 54.9492L19.7048 54.0131L18.525 53.3139L5.37656 35.6808L4.83119 36.1437Z" fill="black"/>
<path fill-rule="evenodd" clip-rule="evenodd" d="M1.53769 35.3033L17.9275 57.5154L19.3884 58.2693L34.8001 43.1946C36.9319 42.5971 40.9763 40.5913 42.2649 36.8587L59.3867 24.1443L58.8513 22.5462L39.3462 2.74374L35.7196 5.58728C34.9692 5.32501 33.3472 4.80958 32.8621 4.84602C32.2557 4.89157 19.2188 12.2624 19.979 18.4782C20.0378 18.9582 15.117 15.0988 4.48192 29.1686L4.6756 32.2295L1.53769 35.3033ZM18.7401 54.9492L4.83119 36.1437L5.37656 35.6808L18.525 53.3139L19.7048 54.0131L18.7401 54.9492ZM17.9592 48.9855L7.77321 35.4645L7.66432 32.9181L17.6633 46.0114L17.9592 48.9855ZM19.0866 44.5102L7.80951 29.9801C15.2715 20.0343 20.2042 20.3786 21.7378 21.794C24.7673 25.0869 32.861 34.7541 32.7316 34.7467C28.539 34.5052 21.888 41.155 19.0866 44.5102ZM45.9804 21.6837C36.7846 26.7677 34.1798 31.7778 34.0269 33.6473C31.4562 31.0792 25.6658 23.7964 23.0331 20.6946C19.8287 16.9192 28.798 10.5825 33.3213 8.15067C35.2018 10.3663 46.1001 21.6175 45.9804 21.6837ZM20.5664 47.3591L20.8766 49.3828L32.5555 38.0628C33.9966 37.8952 34.6701 37.7564 34.6133 37.7236C30.5916 35.3996 23.4318 43.4805 20.5664 47.3591ZM48.396 23.5624C43.0216 26.8339 35.4367 31.9229 36.5562 36.0745C36.9379 35.7505 37.3658 34.4491 37.532 33.8389L50.5996 24.155L48.396 23.5624ZM47.6486 20.6782L36.2779 8.45598L38.6706 9.06406L50.3564 21.3121L47.6486 20.6782ZM54.5012 22.6027L39.1919 6.56916L39.8292 6.1455L56.09 22.9547L55.0675 23.8227L54.5012 22.6027Z" stroke="black"/>
<path d="M7.77321 35.4645L17.9592 48.9855L17.6633 46.0114L7.66432 32.9181L7.77321 35.4645Z" stroke="black"/>
<path d="M7.80951 29.9801L19.0866 44.5102C21.888 41.155 28.539 34.5052 32.7316 34.7467C32.861 34.7541 24.7673 25.0869 21.7378 21.794C20.2042 20.3786 15.2715 20.0343 7.80951 29.9801Z" stroke="black"/>
<path d="M34.0269 33.6473C34.1798 31.7778 36.7846 26.7677 45.9804 21.6837C46.1001 21.6175 35.2018 10.3663 33.3213 8.15067C28.798 10.5825 19.8287 16.9192 23.0331 20.6946C25.6658 23.7964 31.4562 31.0792 34.0269 33.6473Z" stroke="black"/>
<path d="M36.2779 8.45598L47.6486 20.6782L50.3564 21.3121L38.6706 9.06406L36.2779 8.45598Z" stroke="black"/>
<path d="M39.1919 6.56916L54.5012 22.6027L55.0675 23.8227L56.09 22.9547L39.8292 6.1455L39.1919 6.56916Z" stroke="black"/>
<path d="M36.5562 36.0745C35.4367 31.9229 43.0216 26.8339 48.396 23.5624L50.5996 24.155L37.532 33.8389C37.3658 34.4491 36.9379 35.7505 36.5562 36.0745Z" stroke="black"/>
<path d="M20.8766 49.3828L20.5664 47.3591C23.4318 43.4805 30.5916 35.3996 34.6133 37.7236C34.6701 37.7564 33.9966 37.8952 32.5555 38.0628L20.8766 49.3828Z" stroke="black"/>
<path d="M4.83119 36.1437L18.7401 54.9492L19.7048 54.0131L18.525 53.3139L5.37656 35.6808L4.83119 36.1437Z" stroke="black"/>
<path d="M31.9132 26.5278C32.8891 24.9371 35.9325 21.2867 40.2983 19.4108M17.2333 37.6974C18.2092 36.1067 21.2526 32.4563 25.6184 30.5804M18.8823 39.6403C19.8583 38.0496 22.9017 34.3992 27.2675 32.5233M11.3024 30.7098C12.2784 29.1191 15.3218 25.4687 19.6876 23.5928M25.1155 19.2789C26.0915 17.6882 29.1349 14.0378 33.5007 12.1619M26.7955 20.8437C27.7715 19.253 30.8149 15.6026 35.1807 13.7267M33.4774 27.9562C34.4534 26.3655 37.4968 22.7151 41.8626 20.8392M15.5553 35.7204C16.5312 34.1297 19.5746 30.4793 23.9404 28.6034" stroke="#08D9D6" stroke-linecap="round"/>
</g>
<defs>
<clipPath id="clip0_46_4">
<rect width="60" height="60" fill="white"/>
</clipPath>
</defs>
</svg>
