<svg width="60" height="60" viewBox="0 0 60 60" fill="none" xmlns="http://www.w3.org/2000/svg">
<path fill-rule="evenodd" clip-rule="evenodd" d="M47.0989 21.8388C47.1215 23.6353 49.4576 22.9813 49.3774 22.0859C49.3788 22.0798 49.3801 22.0737 49.3814 22.0677C49.383 22.0603 49.3846 22.0529 49.3861 22.0456C49.7274 20.3481 47.0731 19.7867 47.0989 21.8388Z" fill="#00FFFB"/>
<path d="M14.1227 15.0136C14.2502 14.1846 12.5084 12.7585 11.7098 15.044C12.0761 16.7632 14.1409 16.4614 14.1227 15.0136Z" fill="black"/>
<path d="M49.3774 22.0859C49.4576 22.9813 47.1215 23.6353 47.0989 21.8388C47.0731 19.7867 49.7274 20.3481 49.3861 22.0456C49.3846 22.0529 49.383 22.0603 49.3814 22.0677C49.3801 22.0737 49.3788 22.0798 49.3774 22.0859Z" fill="black"/>
<path d="M31.7072 48.0275L29.7578 46.535C28.3539 50.0463 21.9531 56.4638 14.0439 52.5937C3.46543 47.4174 8.52722 36.1145 9.61988 35.2733C10.2305 34.4842 12 32.637 14.193 31.5613L12.8571 29.5095C6.6181 32.3461 -0.526651 45.3991 12.3412 54.27C16.0685 56.4066 25.9816 58.7871 31.7072 48.0275Z" fill="#08D9D6"/>
<path fill-rule="evenodd" clip-rule="evenodd" d="M33.8609 49.3105C19.0636 73.4231 -13.0146 44.7977 11.3859 27.6663L11.522 27.5267L11.3816 27.3216C9.26127 23.2112 4.70288 17.1317 8.00816 11.2982C11.3134 5.46456 24.5913 12.2157 30.069 16.4679L30.6249 16.8056L30.83 16.6651C30.83 16.6651 31.0945 15.7654 33.0305 10.7075C34.9664 5.64966 44.633 -4.2632 54.8845 4.91641C59.0503 9.02413 63.7524 19.2159 49.8579 27.3892L43.8894 29.8087C43.9081 29.8332 43.9405 29.8521 43.9592 29.8767C60.0149 50.981 50.7403 59.1652 34.1392 49.5138L33.8609 49.3105ZM29.7578 46.535L31.7072 48.0275C25.9816 58.7871 16.0685 56.4066 12.3412 54.27C-0.526651 45.3991 6.6181 32.3461 12.8571 29.5095L14.193 31.5613C12 32.637 10.2305 34.4842 9.61988 35.2733C8.52722 36.1145 3.46543 47.4174 14.0439 52.5937C21.9531 56.4638 28.3539 50.0463 29.7578 46.535ZM14.4289 50.3134C22.4726 53.9081 26.7472 48.3886 27.879 45.1796C27.5834 45.0809 17.1206 35.995 15.9425 33.6079C12.0189 34.1399 5.24158 43.6716 14.4289 50.3134ZM35.0068 36.264C36.638 34.3818 40.5801 31.666 41.9075 31.2126C51.9298 43.0015 50.5691 49.2152 48.636 50.8484C41.4042 53.03 31.5977 44.9464 26.6462 40.8649C25.7187 40.1003 24.9616 39.4762 24.4237 39.0863C21.5429 36.9983 17.0063 31.5598 13.6549 26.0732L13.6379 26.0453C10.0371 20.1431 7.81329 14.1915 10.5031 12.301C15.6975 8.65017 29.4022 18.269 29.759 19.2298C30.0445 19.9985 26.4927 24.5113 24.6812 26.6716C27.1502 31.0995 33.9814 36.9665 35.0068 36.264ZM34.2632 15.5187C28.6204 27.3806 27.1631 26.6404 27.6518 27.1169C29.0541 29.7288 32.7461 32.3481 34.4525 33.3538L34.9661 33.0238C37.1177 31.4891 37.4805 30.2933 42.4936 27.9717L42.5057 27.9662C43.2216 27.6348 44.0322 27.2806 44.9561 26.8992C60.8269 22.3556 57.3051 10.9768 53.4575 6.58922C41.9824 -1.19595 35.3623 9.71287 34.2632 15.5187Z" fill="black"/>
<path fill-rule="evenodd" clip-rule="evenodd" d="M27.6518 27.1169C27.1631 26.6404 28.6204 27.3806 34.2632 15.5187C35.3623 9.71287 41.9824 -1.19595 53.4575 6.58922C57.3051 10.9768 60.8269 22.3556 44.9561 26.8992C44.0322 27.2806 43.2216 27.6348 42.5057 27.9662L42.4936 27.9717C37.4805 30.2933 37.1177 31.4891 34.9661 33.0238L34.4525 33.3538C32.7461 32.3481 29.0541 29.7288 27.6518 27.1169ZM47.0989 21.8388C47.1215 23.6353 49.4576 22.9813 49.3774 22.0859C49.3788 22.0798 49.3801 22.0737 49.3814 22.0677C49.383 22.0603 49.3846 22.0529 49.3861 22.0456C49.7274 20.3481 47.0731 19.7867 47.0989 21.8388Z" fill="#08D9D6"/>
<path fill-rule="evenodd" clip-rule="evenodd" d="M41.9075 31.2126C40.5801 31.666 36.638 34.3818 35.0068 36.264C33.9814 36.9665 27.1502 31.0995 24.6812 26.6716C26.4927 24.5113 30.0445 19.9985 29.759 19.2298C29.4022 18.269 15.6975 8.65017 10.5031 12.301C7.81329 14.1915 10.0371 20.1431 13.6379 26.0453L13.6549 26.0732C17.0063 31.5598 21.5429 36.9983 24.4237 39.0863C24.9616 39.4762 25.7187 40.1003 26.6462 40.8649C31.5977 44.9464 41.4042 53.03 48.636 50.8484C50.5691 49.2152 51.9298 43.0015 41.9075 31.2126ZM14.1227 15.0136C14.2502 14.1846 12.5084 12.7585 11.7098 15.044C12.0761 16.7632 14.1409 16.4614 14.1227 15.0136Z" fill="#08D9D6"/>
<path d="M50.869 20.0675C52.5984 18.6897 55.3139 14.9367 52.3402 10.9473M16.2339 23.8819C15.4375 22.6968 13.7986 19.9409 13.6137 18.3987" stroke="black"/>
</svg>
