<svg width="64" height="53" viewBox="0 0 64 53" fill="none" xmlns="http://www.w3.org/2000/svg">
    <path d="M6.99343 33.2023C8.3537 30.0931 11.4255 28.0841 14.8193 28.0841H32.7781C36.0136 28.0841 38.9714 29.9121 40.4184 32.806L41.9757 35.9207C44.4344 40.8381 41.675 46.7639 36.329 48.047L26.2236 50.4723C24.9132 50.7868 23.547 50.7868 22.2366 50.4723L11.5266 47.9019C6.35443 46.6606 3.56225 41.045 5.69423 36.1719L6.99343 33.2023Z" stroke="#08D9D6" stroke-width="2.3"/>
    <circle cx="23.2613" cy="13.3641" r="10.4804" stroke="#08D9D6" stroke-width="2.3"/>
    <path d="M35.9892 20.0674C36.3803 19.1735 37.2635 18.5958 38.2393 18.5958H52.7023C54.8082 18.5958 56.7334 19.7856 57.6752 21.6692L58.7534 23.8256C60.3537 27.0262 58.5576 30.8832 55.078 31.7184L52.3294 32.378C49.6241 33.0273 46.8725 31.4957 45.9988 28.8543L45.747 28.093C44.9496 25.6823 42.8062 23.9681 40.2792 23.72L37.9994 23.4963C36.3384 23.3332 35.3202 21.5965 35.9892 20.0674Z" stroke="#08D9D6" stroke-width="2.3"/>
    <circle cx="46.1124" cy="8.05184" r="6.90184" stroke="#08D9D6" stroke-width="2.3"/>
</svg>
