<svg width="64" height="53" viewBox="0 0 64 53" fill="none" xmlns="http://www.w3.org/2000/svg">
    <path d="M14.8193 28.6841H32.7781C35.7864 28.6841 38.5364 30.3837 39.8817 33.0743L41.4391 36.189C43.7251 40.761 41.1595 46.2706 36.1889 47.4636L26.0835 49.8889C24.8652 50.1813 23.595 50.1813 22.3766 49.8889L11.6666 47.3184C6.85775 46.1643 4.2617 40.9432 6.24392 36.4124L7.54312 33.4428C8.80785 30.552 11.6639 28.6841 14.8193 28.6841Z" fill="#08D9D6" stroke="#08D9D6" stroke-width="3.5"/>
    <circle cx="23.2613" cy="13.3641" r="9.88044" fill="#08D9D6" stroke="#08D9D6" stroke-width="3.5"/>
    <path d="M38.2393 19.1958H52.7023C54.581 19.1958 56.2984 20.2572 57.1385 21.9376L58.2167 24.0939C59.6443 26.9491 58.0421 30.3899 54.938 31.1349L52.1894 31.7946C49.7874 32.3711 47.3442 31.0112 46.5684 28.6659L46.3166 27.9046C45.4447 25.2686 43.101 23.3941 40.3378 23.1229L38.058 22.8991C36.8027 22.7759 36.0333 21.4635 36.5388 20.3079C36.8344 19.6323 37.5019 19.1958 38.2393 19.1958Z" fill="#08D9D6" stroke="#08D9D6" stroke-width="3.5"/>
    <circle cx="46.1124" cy="8.05184" r="6.30184" fill="#08D9D6" stroke="#08D9D6" stroke-width="3.5"/>
</svg>
