<svg width="62" height="59" viewBox="0 0 62 59" fill="none" xmlns="http://www.w3.org/2000/svg">
    <mask id="path-1-inside-1_169_165" fill="white">
        <path d="M17.7341 8.88186C15.7988 6.52624 13.4456 4.67552 11.1923 3.73685C8.9389 2.79817 6.96993 2.84844 5.7185 3.87657C4.46708 4.90471 4.03571 6.82651 4.5193 9.21919C5.00288 11.6119 6.36181 14.2794 8.29713 16.6351L13.0156 12.7585L17.7341 8.88186Z"/>
    </mask>
    <path d="M17.7341 8.88186C15.7988 6.52624 13.4456 4.67552 11.1923 3.73685C8.9389 2.79817 6.96993 2.84844 5.7185 3.87657C4.46708 4.90471 4.03571 6.82651 4.5193 9.21919C5.00288 11.6119 6.36181 14.2794 8.29713 16.6351L13.0156 12.7585L17.7341 8.88186Z" stroke="#08D9D6" stroke-width="4" mask="url(#path-1-inside-1_169_165)"/>
    <mask id="path-2-inside-2_169_165" fill="white">
        <path d="M43.2971 8.88186C45.2324 6.52624 47.5856 4.67552 49.839 3.73685C52.0923 2.79817 54.0613 2.84844 55.3127 3.87657C56.5642 4.90471 56.9955 6.82651 56.512 9.21919C56.0284 11.6119 54.6694 14.2794 52.7341 16.6351L48.0156 12.7585L43.2971 8.88186Z"/>
    </mask>
    <path d="M43.2971 8.88186C45.2324 6.52624 47.5856 4.67552 49.839 3.73685C52.0923 2.79817 54.0613 2.84844 55.3127 3.87657C56.5642 4.90471 56.9955 6.82651 56.512 9.21919C56.0284 11.6119 54.6694 14.2794 52.7341 16.6351L48.0156 12.7585L43.2971 8.88186Z" stroke="#08D9D6" stroke-width="4" mask="url(#path-2-inside-2_169_165)"/>
    <path d="M41.5012 10.9999L30.4989 17.0009" stroke="#08D9D6" stroke-width="2"/>
    <path d="M11.5742 25.8191L1 32" stroke="#08D9D6" stroke-width="2"/>
    <path d="M10.0027 19.5002L13.0026 32" stroke="#08D9D6" stroke-width="2"/>
    <path d="M19.5006 11.4992L56.5014 30" stroke="#08D9D6" stroke-width="2"/>
    <path d="M51 18.5L48.4998 26.5001" stroke="#08D9D6" stroke-width="2"/>
    <path d="M12.5246 49.69H21.9061C23.3787 49.69 24.7248 50.522 25.3833 51.8391C26.6758 54.4239 24.7961 57.4653 21.9061 57.4653H17.1248H12.5246C9.72107 57.4653 7.83923 54.5879 8.96296 52.0194C9.58204 50.6044 10.9801 49.69 12.5246 49.69Z" stroke="#08D9D6" stroke-width="2.35078"/>
    <circle cx="16.933" cy="41.4262" r="4.90023" stroke="#08D9D6" stroke-width="2.35078"/>
    <rect x="3.25114" y="35.0923" width="1.92013" height="13.8385" rx="0.960066" transform="rotate(-22.1446 3.25114 35.0923)" stroke="#08D9D6" stroke-width="1.92013"/>
    <rect x="-1.26357" y="0.496847" width="1.92013" height="13.2728" rx="0.960066" transform="matrix(-0.916818 -0.399305 -0.399305 0.916818 29.7764 34.0702)" stroke="#08D9D6" stroke-width="1.92013"/>
    <path d="M38.963 52.0194C39.582 50.6044 40.9801 49.69 42.5246 49.69H51.9061C53.3787 49.69 54.7248 50.522 55.3833 51.8391C56.6758 54.4239 54.7961 57.4653 51.9061 57.4653H47.1248H42.5246C39.7211 57.4653 37.8392 54.5879 38.963 52.0194Z" stroke="#08D9D6" stroke-width="2.35078"/>
    <circle cx="46.933" cy="41.4262" r="4.90023" stroke="#08D9D6" stroke-width="2.35078"/>
    <rect x="33.2511" y="35.0923" width="1.92013" height="13.8385" rx="0.960066" transform="rotate(-22.1446 33.2511 35.0923)" stroke="#08D9D6" stroke-width="1.92013"/>
    <rect x="-1.26357" y="0.496847" width="1.92013" height="13.2728" rx="0.960066" transform="matrix(-0.916818 -0.399305 -0.399305 0.916818 59.7764 34.0702)" stroke="#08D9D6" stroke-width="1.92013"/>
</svg>
