<svg width="85" height="64" viewBox="0 0 85 64" fill="none" xmlns="http://www.w3.org/2000/svg">
    <mask id="path-1-outside-1_164_88" maskUnits="userSpaceOnUse" x="4.00137" y="21.4337" width="42.5671" height="44.9633" fill="black">
        <rect fill="white" x="4.00137" y="21.4337" width="42.5671" height="44.9633"/>
        <path d="M32.2525 54.4859L30.6423 45.8932C30.5172 45.2255 30.3295 44.8059 30.0791 44.6346C29.8638 44.4566 29.4048 44.4335 28.7019 44.5652L14.9431 47.1434C12.1667 47.6637 10.5184 46.5356 9.99814 43.7593L8.22007 34.2704C7.69983 31.494 8.82789 29.8457 11.6043 29.3255L32.8488 25.3446C35.6251 24.8243 37.2734 25.9524 37.7937 28.7288L38.9395 34.8438L28.7654 36.7503L27.7282 31.2151C27.5965 30.5122 27.4087 30.0927 27.1649 29.9565C26.9145 29.7851 26.4555 29.762 25.7878 29.8871L19.8309 31.0034C19.128 31.1351 18.6909 31.3261 18.5195 31.5765C18.3767 31.7852 18.3712 32.2409 18.5029 32.9438L20.0636 41.2729C20.1954 41.9758 20.3688 42.4162 20.5841 42.5941C20.8278 42.7303 21.3012 42.7326 22.0041 42.6009L35.7629 40.0227C38.5393 39.5024 40.1876 40.6305 40.7078 43.4069L42.5353 53.1593C43.0555 55.9357 41.9275 57.584 39.1511 58.1042L17.9066 62.0851C15.1302 62.6054 13.4819 61.4773 12.9617 58.7009L11.8158 52.5859L21.99 50.6794L23.0272 56.2146C23.1589 56.9175 23.3499 57.3546 23.6003 57.5259C23.8441 57.6621 24.2999 57.6677 24.9676 57.5425L30.9245 56.4263C31.6274 56.2946 32.0502 56.1244 32.193 55.9158C32.3644 55.6654 32.3842 55.1888 32.2525 54.4859Z"/>
    </mask>
    <path d="M30.0791 44.6346L28.752 46.2398L28.8248 46.3L28.9028 46.3534L30.0791 44.6346ZM38.9395 34.8438L39.3232 36.891L41.3703 36.5074L40.9867 34.4602L38.9395 34.8438ZM28.7654 36.7503L26.7182 37.1339L27.1018 39.1811L29.149 38.7975L28.7654 36.7503ZM27.1649 29.9565L25.9886 31.6753L26.0666 31.7287L26.1491 31.7748L27.1649 29.9565ZM18.5195 31.5765L16.8007 30.4002L16.8007 30.4002L18.5195 31.5765ZM20.5841 42.5941L19.257 44.1994L19.4029 44.32L19.5682 44.4124L20.5841 42.5941ZM11.8158 52.5859L11.4322 50.5387L9.38504 50.9223L9.76865 52.9695L11.8158 52.5859ZM21.99 50.6794L24.0372 50.2958L23.6535 48.2486L21.6064 48.6322L21.99 50.6794ZM23.6003 57.5259L22.424 59.2447L22.502 59.2981L22.5844 59.3442L23.6003 57.5259ZM32.193 55.9158L33.9118 57.0921L33.9118 57.0921L32.193 55.9158ZM34.2996 54.1023L32.6895 45.5096L28.5952 46.2768L30.2053 54.8695L34.2996 54.1023ZM32.6895 45.5096C32.6097 45.0836 32.4931 44.6388 32.3088 44.227C32.1329 43.834 31.8209 43.3028 31.2554 42.9158L28.9028 46.3534C28.7387 46.2411 28.6368 46.124 28.582 46.0502C28.5279 45.9771 28.5067 45.9289 28.5066 45.9285C28.5057 45.9267 28.5172 45.9524 28.5352 46.0149C28.5529 46.0764 28.5737 46.1623 28.5952 46.2768L32.6895 45.5096ZM31.4062 43.0293C30.7931 42.5224 30.091 42.4244 29.6781 42.4036C29.221 42.3806 28.7523 42.4367 28.3183 42.5181L29.0855 46.6124C29.2118 46.5887 29.3078 46.5757 29.3772 46.5693C29.4482 46.5626 29.4757 46.5643 29.4686 46.564C29.4648 46.5638 29.392 46.5605 29.2768 46.5261C29.1605 46.4914 28.9616 46.4131 28.752 46.2398L31.4062 43.0293ZM28.3183 42.5181L14.5595 45.0963L15.3267 49.1906L29.0855 46.6124L28.3183 42.5181ZM14.5595 45.0963C13.4868 45.2973 13.0084 45.1108 12.8009 44.9688C12.5934 44.8267 12.2463 44.4483 12.0453 43.3756L7.95097 44.1429C8.27023 45.8466 9.00745 47.4204 10.4482 48.4064C11.889 49.3924 13.6229 49.5099 15.3267 49.1906L14.5595 45.0963ZM12.0453 43.3756L10.2672 33.8868L6.1729 34.654L7.95097 44.1429L12.0453 43.3756ZM10.2672 33.8868C10.0663 32.8142 10.2527 32.3357 10.3948 32.1282C10.5368 31.9207 10.9152 31.5736 11.9879 31.3726L11.2206 27.2783C9.5169 27.5976 7.94315 28.3348 6.95711 29.7756C5.97107 31.2164 5.85365 32.9503 6.1729 34.654L10.2672 33.8868ZM11.9879 31.3726L33.2324 27.3918L32.4651 23.2974L11.2206 27.2783L11.9879 31.3726ZM33.2324 27.3918C34.305 27.1908 34.7834 27.3772 34.9909 27.5193C35.1985 27.6613 35.5455 28.0397 35.7465 29.1124L39.8408 28.3451C39.5216 26.6414 38.7844 25.0677 37.3436 24.0816C35.9028 23.0956 34.1689 22.9782 32.4651 23.2974L33.2324 27.3918ZM35.7465 29.1124L36.8924 35.2274L40.9867 34.4602L39.8408 28.3451L35.7465 29.1124ZM38.5559 32.7966L28.3818 34.7031L29.149 38.7975L39.3232 36.891L38.5559 32.7966ZM30.8126 36.3667L29.7753 30.8315L25.681 31.5987L26.7182 37.1339L30.8126 36.3667ZM29.7753 30.8315C29.694 30.3975 29.5766 29.9403 29.3897 29.5225C29.2208 29.1451 28.8753 28.5262 28.1808 28.1382L26.1491 31.7748C25.9116 31.6421 25.7666 31.4851 25.6922 31.3892C25.6184 31.2942 25.589 31.2276 25.5875 31.2241C25.5846 31.2176 25.5961 31.2426 25.6156 31.3112C25.6347 31.3782 25.6573 31.4724 25.681 31.5987L29.7753 30.8315ZM28.3412 28.2377C27.7758 27.8507 27.1676 27.7521 26.7376 27.7305C26.287 27.7078 25.8302 27.7601 25.4042 27.84L26.1714 31.9343C26.2859 31.9129 26.3735 31.9012 26.4372 31.8954C26.5021 31.8895 26.5301 31.8909 26.5281 31.8908C26.5277 31.8908 26.4751 31.8885 26.3874 31.8645C26.2987 31.8402 26.1527 31.7876 25.9886 31.6753L28.3412 28.2377ZM25.4042 27.84L19.4473 28.9562L20.2145 33.0505L26.1714 31.9343L25.4042 27.84ZM19.4473 28.9562C19.0096 29.0382 18.5572 29.1554 18.1418 29.337C17.7528 29.5069 17.1992 29.8179 16.8007 30.4002L20.2383 32.7528C20.1185 32.9279 19.9937 33.0329 19.9209 33.0857C19.8484 33.1383 19.8032 33.1569 19.81 33.1539C19.8149 33.1518 19.8486 33.1378 19.9209 33.1173C19.992 33.0972 20.0885 33.0742 20.2145 33.0505L19.4473 28.9562ZM16.8007 30.4002C16.3757 31.0212 16.3299 31.6969 16.3256 32.0495C16.3205 32.4689 16.3771 32.9079 16.4557 33.3274L20.5501 32.5602C20.5249 32.4256 20.5093 32.3191 20.5004 32.2375C20.4914 32.1543 20.4908 32.111 20.4909 32.1001C20.4911 32.0852 20.4923 32.1373 20.4709 32.2332C20.4505 32.3245 20.3943 32.5249 20.2383 32.7528L16.8007 30.4002ZM16.4557 33.3274L18.0165 41.6565L22.1108 40.8893L20.5501 32.5602L16.4557 33.3274ZM18.0165 41.6565C18.0957 42.0791 18.2017 42.5055 18.3546 42.8937C18.4918 43.2418 18.75 43.7803 19.257 44.1994L21.9112 40.9889C22.0716 41.1215 22.1586 41.2469 22.1938 41.303C22.2307 41.3617 22.2395 41.3902 22.2304 41.3671C22.2223 41.3464 22.2051 41.2979 22.1826 41.2137C22.1604 41.1306 22.136 41.0236 22.1108 40.8893L18.0165 41.6565ZM19.5682 44.4124C20.1424 44.7332 20.7378 44.779 21.112 44.7807C21.5292 44.7827 21.965 44.7272 22.3877 44.648L21.6204 40.5537C21.4861 40.5789 21.3775 40.5948 21.2921 40.6042C21.2054 40.6138 21.154 40.6153 21.1318 40.6152C21.107 40.6151 21.1367 40.613 21.2048 40.6261C21.2698 40.6387 21.4181 40.6743 21.5999 40.7759L19.5682 44.4124ZM22.3877 44.648L36.1465 42.0698L35.3793 37.9755L21.6204 40.5537L22.3877 44.648ZM36.1465 42.0698C37.2191 41.8689 37.6976 42.0553 37.9051 42.1974C38.1126 42.3394 38.4597 42.7178 38.6607 43.7905L42.755 43.0232C42.4357 41.3195 41.6985 39.7458 40.2577 38.7597C38.8169 37.7737 37.083 37.6562 35.3793 37.9755L36.1465 42.0698ZM38.6607 43.7905L40.4881 53.5429L44.5825 52.7757L42.755 43.0232L38.6607 43.7905ZM40.4881 53.5429C40.6891 54.6155 40.5026 55.094 40.3606 55.3015C40.2186 55.509 39.8401 55.8561 38.7675 56.057L39.5347 60.1514C41.2385 59.8321 42.8122 59.0949 43.7982 57.6541C44.7843 56.2133 44.9017 54.4794 44.5825 52.7757L40.4881 53.5429ZM38.7675 56.057L17.523 60.0379L18.2902 64.1323L39.5347 60.1514L38.7675 56.057ZM17.523 60.0379C16.4504 60.2389 15.9719 60.0524 15.7644 59.9104C15.5569 59.7684 15.2098 59.3899 15.0089 58.3173L10.9145 59.0845C11.2338 60.7883 11.971 62.362 13.4118 63.3481C14.8526 64.3341 16.5865 64.4515 18.2902 64.1323L17.523 60.0379ZM15.0089 58.3173L13.863 52.2023L9.76865 52.9695L10.9145 59.0845L15.0089 58.3173ZM12.1994 54.6331L22.3736 52.7266L21.6064 48.6322L11.4322 50.5387L12.1994 54.6331ZM19.9428 51.063L20.98 56.5982L25.0744 55.831L24.0372 50.2958L19.9428 51.063ZM20.98 56.5982C21.062 57.0359 21.1792 57.4883 21.3608 57.9037C21.5307 58.2926 21.8417 58.8462 22.424 59.2447L24.7766 55.8071C24.9517 55.9269 25.0567 56.0517 25.1095 56.1245C25.1621 56.197 25.1807 56.2423 25.1777 56.2355C25.1756 56.2306 25.1616 56.1968 25.1411 56.1245C25.121 56.0535 25.098 55.957 25.0744 55.831L20.98 56.5982ZM22.5844 59.3442C23.1433 59.6564 23.72 59.7103 24.0997 59.7149C24.5137 59.7199 24.9413 59.6665 25.3512 59.5897L24.584 55.4954C24.4607 55.5185 24.3622 55.5327 24.2861 55.5408C24.2089 55.549 24.1655 55.5498 24.1503 55.5496C24.1329 55.5494 24.1667 55.5481 24.2365 55.5623C24.3045 55.576 24.4453 55.6122 24.6162 55.7077L22.5844 59.3442ZM25.3512 59.5897L31.3081 58.4735L30.5409 54.3791L24.584 55.4954L25.3512 59.5897ZM31.3081 58.4735C31.7276 58.3949 32.1573 58.2887 32.5464 58.1321C32.8735 58.0004 33.4868 57.7131 33.9118 57.0921L30.4742 54.7395C30.6302 54.5115 30.7966 54.3866 30.8744 54.3345C30.956 54.2799 31.005 54.2621 30.9911 54.2677C30.981 54.2718 30.9405 54.2869 30.8597 54.3086C30.7804 54.3298 30.6755 54.3539 30.5409 54.3791L31.3081 58.4735ZM33.9118 57.0921C34.3103 56.5098 34.3997 55.8812 34.4174 55.4571C34.4362 55.0041 34.3816 54.54 34.2996 54.1023L30.2053 54.8695C30.2289 54.9955 30.2424 55.0938 30.2493 55.1673C30.2564 55.2421 30.2556 55.2786 30.2554 55.284C30.2551 55.2914 30.256 55.2425 30.2788 55.1559C30.3016 55.0689 30.3543 54.9146 30.4742 54.7395L33.9118 57.0921Z" fill="#08D9D6" mask="url(#path-1-outside-1_164_88)"/>
    <rect x="13.5513" y="7.40551" width="9.6495" height="10.4875" rx="1.05365" transform="rotate(-10.6133 13.5513 7.40551)" stroke="#08D9D6" stroke-width="2.0828"/>
    <line x1="15.1836" y1="4.88639" x2="25.6818" y2="60.9113" stroke="#08D9D6" stroke-width="0.878392"/>
    <line x1="21.0801" y1="3.78141" x2="31.5783" y2="59.8063" stroke="#08D9D6" stroke-width="0.878392"/>
    <line x1="18.1329" y1="4.3339" x2="28.6311" y2="60.3588" stroke="#08D9D6" stroke-width="0.878392"/>
    <mask id="path-7-outside-2_164_88" maskUnits="userSpaceOnUse" x="44.9372" y="27.9916" width="37.0745" height="34.0811" fill="black">
        <rect fill="white" x="44.9372" y="27.9916" width="37.0745" height="34.0811"/>
        <path d="M51.5986 49.9971L59.9933 50.0155C60.6457 50.0169 61.0751 49.9148 61.2815 49.7093C61.4879 49.5381 61.5918 49.1091 61.5933 48.4224L61.6228 34.9807C61.6288 32.2683 62.9879 30.9151 65.7003 30.921L74.9705 30.9413C77.6829 30.9473 79.0361 32.3065 79.0302 35.0188L78.9847 55.7738C78.9787 58.4862 77.6195 59.8394 74.9072 59.8334L68.933 59.8203L68.9548 49.8806L74.3624 49.8925C75.0491 49.894 75.4785 49.7919 75.6507 49.5863C75.8571 49.3808 75.961 48.9518 75.9625 48.2995L75.9752 42.4798C75.9767 41.7932 75.8747 41.3466 75.6692 41.1401C75.4979 40.9681 75.0689 40.8813 74.3822 40.8798L66.245 40.862C65.5584 40.8604 65.1118 40.9453 64.9055 41.1165C64.7333 41.3222 64.6465 41.7683 64.645 42.455L64.6155 55.8968C64.6096 58.6091 63.2504 59.9624 60.538 59.9564L51.0103 59.9355C48.2979 59.9296 46.9447 58.5704 46.9507 55.858L46.9962 35.1031C47.0021 32.3907 48.3613 31.0375 51.0737 31.0434L57.0478 31.0565L57.026 40.9962L51.6184 40.9844C50.9317 40.9829 50.4852 41.0849 50.2787 41.2904C50.1066 41.4961 50.0198 41.9251 50.0184 42.5774L50.0056 48.397C50.0041 49.0837 50.089 49.5131 50.2603 49.6851C50.4658 49.8916 50.912 49.9956 51.5986 49.9971Z"/>
    </mask>
    <path d="M61.2815 49.7093L60.0045 48.1701L59.9347 48.228L59.8704 48.292L61.2815 49.7093ZM68.933 59.8203L66.933 59.8159L66.9287 61.8159L68.9286 61.8203L68.933 59.8203ZM68.9548 49.8806L68.9592 47.8806L66.9592 47.8762L66.9548 49.8762L68.9548 49.8806ZM75.6507 49.5863L74.2395 48.169L74.1753 48.233L74.117 48.3026L75.6507 49.5863ZM75.6692 41.1401L77.0865 39.729L77.0865 39.729L75.6692 41.1401ZM64.9055 41.1165L63.6285 39.5773L63.4885 39.6934L63.3718 39.8328L64.9055 41.1165ZM57.0478 31.0565L59.0478 31.0609L59.0522 29.0609L57.0522 29.0565L57.0478 31.0565ZM57.026 40.9962L57.0216 42.9962L59.0216 43.0006L59.026 41.0006L57.026 40.9962ZM50.2787 41.2904L48.8676 39.8731L48.8033 39.9371L48.7451 40.0067L50.2787 41.2904ZM50.2603 49.6851L48.843 51.0962L48.843 51.0962L50.2603 49.6851ZM51.5943 51.9971L59.9889 52.0155L59.9977 48.0155L51.603 47.9971L51.5943 51.9971ZM59.9889 52.0155C60.4051 52.0164 60.8456 51.986 61.2671 51.8858C61.6694 51.7902 62.2263 51.5908 62.6926 51.1266L59.8704 48.292C60.0057 48.1573 60.1344 48.0821 60.2139 48.0437C60.2925 48.0056 60.3418 47.9943 60.3421 47.9942C60.344 47.9938 60.3178 48 60.2555 48.0057C60.1943 48.0114 60.1096 48.0157 59.9977 48.0155L59.9889 52.0155ZM62.5585 51.2485C63.1464 50.7608 63.3645 50.116 63.458 49.7302C63.5615 49.3031 63.5924 48.8508 63.5933 48.4268L59.5934 48.4181C59.5931 48.5414 59.5882 48.6344 59.5819 48.7009C59.5754 48.7692 59.5689 48.7948 59.5705 48.7882C59.5714 48.7846 59.5875 48.7165 59.6405 48.614C59.6941 48.5104 59.8035 48.3368 60.0045 48.1701L62.5585 51.2485ZM63.5933 48.4268L63.6228 34.9851L59.6228 34.9763L59.5934 48.4181L63.5933 48.4268ZM63.6228 34.9851C63.6251 33.9371 63.8867 33.5191 64.0578 33.3488C64.2289 33.1784 64.648 32.9187 65.6959 32.921L65.7047 28.921C64.0402 28.9174 62.4236 29.3313 61.2356 30.5142C60.0475 31.697 59.6265 33.3118 59.6228 34.9763L63.6228 34.9851ZM65.6959 32.921L74.9661 32.9413L74.9749 28.9413L65.7047 28.921L65.6959 32.921ZM74.9661 32.9413C76.014 32.9436 76.4321 33.2052 76.6024 33.3763C76.7728 33.5474 77.0325 33.9666 77.0302 35.0145L81.0302 35.0232C81.0338 33.3587 80.6199 31.7421 79.437 30.5541C78.2542 29.366 76.6394 28.945 74.9749 28.9413L74.9661 32.9413ZM77.0302 35.0145L76.9847 55.7694L80.9847 55.7782L81.0302 35.0232L77.0302 35.0145ZM76.9847 55.7694C76.9824 56.8173 76.7208 57.2353 76.5497 57.4057C76.3786 57.576 75.9595 57.8357 74.9115 57.8334L74.9028 61.8334C76.5673 61.8371 78.1839 61.4231 79.3719 60.2403C80.56 59.0574 80.981 57.4426 80.9847 55.7782L76.9847 55.7694ZM74.9115 57.8334L68.9374 57.8203L68.9286 61.8203L74.9028 61.8334L74.9115 57.8334ZM70.933 59.8247L70.9548 49.885L66.9548 49.8762L66.933 59.8159L70.933 59.8247ZM68.9504 51.8806L74.3581 51.8925L74.3668 47.8925L68.9592 47.8806L68.9504 51.8806ZM74.3581 51.8925C74.782 51.8934 75.2344 51.8645 75.662 51.7629C76.0482 51.6711 76.694 51.4558 77.1843 50.87L74.117 48.3026C74.2846 48.1023 74.4587 47.9936 74.5625 47.9405C74.6653 47.8879 74.7334 47.8721 74.737 47.8713C74.7437 47.8697 74.718 47.8761 74.6498 47.8823C74.5831 47.8883 74.4902 47.8928 74.3668 47.8925L74.3581 51.8925ZM77.0618 51.0036C77.528 50.5394 77.7298 49.9833 77.8272 49.5814C77.9292 49.1604 77.9616 48.72 77.9625 48.3038L73.9625 48.2951C73.9622 48.4069 73.9576 48.4917 73.9516 48.5528C73.9456 48.6151 73.9393 48.6413 73.9397 48.6394C73.9398 48.6391 73.9513 48.5898 73.9897 48.5114C74.0285 48.432 74.1043 48.3037 74.2395 48.169L77.0618 51.0036ZM77.9625 48.3038L77.9752 42.4842L73.9752 42.4754L73.9625 48.2951L77.9625 48.3038ZM77.9752 42.4842C77.9762 42.0566 77.9466 41.6089 77.8496 41.1845C77.7588 40.7871 77.5645 40.2092 77.0865 39.729L74.2519 42.5512C74.1081 42.4068 74.0314 42.2703 73.9946 42.1922C73.9579 42.1144 73.9485 42.0684 73.9501 42.0753C73.9512 42.0803 73.9584 42.1147 73.9648 42.1865C73.971 42.2572 73.9755 42.3523 73.9752 42.4754L77.9752 42.4842ZM77.0865 39.729C76.5767 39.217 75.9473 39.0528 75.6155 38.9857C75.2207 38.9059 74.7964 38.8807 74.3866 38.8798L74.3778 42.8798C74.5093 42.8801 74.6126 42.8845 74.6911 42.8907C74.7713 42.897 74.8122 42.9042 74.8224 42.9063C74.8365 42.9092 74.7871 42.901 74.7005 42.8636C74.618 42.8281 74.439 42.7392 74.2519 42.5512L77.0865 39.729ZM74.3866 38.8798L66.2494 38.862L66.2407 42.8619L74.3778 42.8798L74.3866 38.8798ZM66.2494 38.862C65.8365 38.8611 65.4154 38.8848 65.0218 38.9596C64.6688 39.0267 64.1145 39.174 63.6285 39.5773L66.1825 42.6558C66.0286 42.7834 65.8947 42.843 65.8355 42.8662C65.7736 42.8905 65.7451 42.8938 65.7685 42.8893C65.7895 42.8853 65.8383 42.8778 65.9218 42.8716C66.0041 42.8656 66.1094 42.8617 66.2407 42.8619L66.2494 38.862ZM63.3718 39.8328C62.9664 40.3171 62.8167 40.8707 62.7481 41.2234C62.6715 41.6166 62.6459 42.0377 62.645 42.4506L66.645 42.4594C66.6453 42.3281 66.6497 42.2228 66.6561 42.1405C66.6626 42.0571 66.6704 42.0083 66.6744 41.9874C66.679 41.964 66.6756 41.9924 66.6511 42.0543C66.6276 42.1133 66.5674 42.2469 66.4391 42.4003L63.3718 39.8328ZM62.645 42.4506L62.6155 55.8924L66.6155 55.9011L66.645 42.4594L62.645 42.4506ZM62.6155 55.8924C62.6132 56.9403 62.3517 57.3583 62.1806 57.5287C62.0095 57.699 61.5903 57.9587 60.5424 57.9564L60.5336 61.9564C62.1981 61.9601 63.8147 61.5461 65.0028 60.3633C66.1909 59.1804 66.6119 57.5656 66.6155 55.9011L62.6155 55.8924ZM60.5424 57.9564L51.0147 57.9355L51.0059 61.9355L60.5336 61.9564L60.5424 57.9564ZM51.0147 57.9355C49.9668 57.9332 49.5488 57.6717 49.3784 57.5006C49.2081 57.3295 48.9484 56.9103 48.9507 55.8624L44.9507 55.8536C44.947 57.5181 45.361 59.1347 46.5438 60.3228C47.7267 61.5108 49.3415 61.9319 51.0059 61.9355L51.0147 57.9355ZM48.9507 55.8624L48.9962 35.1075L44.9962 35.0987L44.9507 55.8536L48.9507 55.8624ZM48.9962 35.1075C48.9985 34.0596 49.26 33.6416 49.4311 33.4712C49.6022 33.3008 50.0214 33.0411 51.0693 33.0434L51.0781 29.0434C49.4136 29.0398 47.797 29.4537 46.6089 30.6366C45.4209 31.8194 44.9998 33.4342 44.9962 35.0987L48.9962 35.1075ZM51.0693 33.0434L57.0434 33.0565L57.0522 29.0565L51.0781 29.0434L51.0693 33.0434ZM55.0478 31.0521L55.026 40.9919L59.026 41.0006L59.0478 31.0609L55.0478 31.0521ZM57.0304 38.9962L51.6228 38.9844L51.614 42.9844L57.0216 42.9962L57.0304 38.9962ZM51.6228 38.9844C51.1952 38.9834 50.7474 39.013 50.323 39.11C49.9257 39.2008 49.3477 39.3951 48.8676 39.8731L51.6898 42.7078C51.5454 42.8515 51.4089 42.9283 51.3308 42.965C51.253 43.0017 51.207 43.0111 51.2139 43.0095C51.2189 43.0084 51.2533 43.0012 51.3251 42.9948C51.3958 42.9886 51.4909 42.9841 51.614 42.9844L51.6228 38.9844ZM48.7451 40.0067C48.3505 40.4781 48.1965 41.0126 48.1242 41.3699C48.0454 41.7596 48.0193 42.1725 48.0184 42.573L52.0184 42.5818C52.0186 42.4613 52.0229 42.3659 52.0288 42.2926C52.0349 42.2183 52.0419 42.1773 52.0448 42.1629C52.0481 42.1466 52.0433 42.1787 52.0174 42.242C51.9923 42.3037 51.933 42.43 51.8123 42.5742L48.7451 40.0067ZM48.0184 42.573L48.0056 48.3926L52.0056 48.4014L52.0184 42.5818L48.0184 42.573ZM48.0056 48.3926C48.0047 48.8024 48.028 49.2269 48.1061 49.622C48.1718 49.9541 48.3332 50.5842 48.843 51.0962L51.6776 48.274C51.8647 48.462 51.9528 48.6413 51.988 48.724C52.025 48.8108 52.033 48.8602 52.0302 48.8461C52.0281 48.8359 52.0211 48.7949 52.0151 48.7148C52.0093 48.6362 52.0053 48.5329 52.0056 48.4014L48.0056 48.3926ZM48.843 51.0962C49.321 51.5764 49.8981 51.7732 50.2951 51.8657C50.719 51.9646 51.1667 51.9961 51.5943 51.9971L51.603 47.9971C51.4799 47.9968 51.3848 47.9919 51.3142 47.9853C51.2424 47.9786 51.208 47.9713 51.203 47.9702C51.1961 47.9685 51.242 47.9782 51.3197 48.0152C51.3976 48.0523 51.5338 48.1296 51.6776 48.274L48.843 51.0962Z" fill="#08D9D6" mask="url(#path-7-outside-2_164_88)"/>
    <rect x="40.1021" y="14.2015" width="1.52853" height="16.7332" rx="0.764264" transform="rotate(-43.7798 40.1021 14.2015)" fill="white" stroke="#08D9D6" stroke-width="1.52853"/>
    <rect x="82.5478" y="14.9204" width="1.31853" height="15.7063" rx="0.659267" transform="rotate(53.4963 82.5478 14.9204)" fill="white" stroke="#08D9D6" stroke-width="1.31853"/>
    <rect x="52.002" y="24.9985" width="3" height="3" rx="1.5" stroke="#08D9D6" stroke-width="2"/>
    <rect x="68.002" y="23.9985" width="3" height="3" rx="1.5" stroke="#08D9D6" stroke-width="2"/>
</svg>
