<svg width="85" height="64" viewBox="0 0 85 64" fill="none" xmlns="http://www.w3.org/2000/svg">
    <path d="M32.2525 54.4859L30.6423 45.8932C30.5172 45.2255 30.3295 44.8059 30.0791 44.6346C29.8638 44.4566 29.4048 44.4335 28.7019 44.5652L14.9431 47.1434C12.1667 47.6637 10.5184 46.5356 9.99814 43.7593L8.22007 34.2704C7.69983 31.494 8.82789 29.8457 11.6043 29.3255L32.8488 25.3446C35.6251 24.8243 37.2734 25.9524 37.7937 28.7288L38.9395 34.8438L28.7654 36.7503L27.7282 31.2151C27.5965 30.5122 27.4087 30.0927 27.1649 29.9565C26.9145 29.7851 26.4555 29.762 25.7878 29.8871L19.8309 31.0034C19.128 31.1351 18.6909 31.3261 18.5195 31.5765C18.3767 31.7852 18.3712 32.2409 18.5029 32.9438L20.0636 41.2729C20.1954 41.9758 20.3688 42.4162 20.5841 42.5941C20.8278 42.7303 21.3012 42.7326 22.0041 42.6009L35.7629 40.0227C38.5393 39.5024 40.1876 40.6305 40.7078 43.4069L42.5353 53.1593C43.0555 55.9357 41.9275 57.584 39.1511 58.1042L17.9066 62.0851C15.1302 62.6054 13.4819 61.4773 12.9617 58.7009L11.8158 52.5859L21.99 50.6794L23.0272 56.2146C23.1589 56.9175 23.3499 57.3546 23.6003 57.5259C23.8441 57.6621 24.2999 57.6677 24.9676 57.5425L30.9245 56.4263C31.6274 56.2946 32.0502 56.1244 32.193 55.9158C32.3644 55.6654 32.3842 55.1888 32.2525 54.4859Z" fill="#08D9D6"/>
    <rect x="13.5513" y="7.40551" width="9.6495" height="10.4875" rx="1.05365" transform="rotate(-10.6133 13.5513 7.40551)" stroke="#08D9D6" stroke-width="2.0828"/>
    <line x1="14.9829" y1="4.9208" x2="25.4811" y2="60.9457" stroke="#08D9D6" stroke-width="2"/>
    <line x1="20.8794" y1="3.81582" x2="31.3776" y2="59.8407" stroke="#08D9D6" stroke-width="2"/>
    <line x1="17.9321" y1="4.36831" x2="28.4303" y2="60.3932" stroke="#08D9D6" stroke-width="2"/>
    <path d="M51.5986 49.9971L59.9933 50.0155C60.6457 50.0169 61.0751 49.9148 61.2815 49.7093C61.4879 49.5381 61.5918 49.1091 61.5933 48.4224L61.6228 34.9807C61.6288 32.2683 62.9879 30.9151 65.7003 30.921L74.9705 30.9413C77.6829 30.9473 79.0361 32.3065 79.0302 35.0188L78.9847 55.7738C78.9787 58.4862 77.6195 59.8394 74.9072 59.8334L68.933 59.8203L68.9548 49.8806L74.3624 49.8925C75.0491 49.894 75.4785 49.7919 75.6507 49.5863C75.8571 49.3808 75.961 48.9518 75.9625 48.2995L75.9752 42.4798C75.9767 41.7932 75.8747 41.3466 75.6692 41.1401C75.4979 40.9681 75.0689 40.8813 74.3822 40.8798L66.245 40.862C65.5584 40.8604 65.1118 40.9453 64.9055 41.1165C64.7333 41.3222 64.6465 41.7683 64.645 42.455L64.6155 55.8968C64.6096 58.6091 63.2504 59.9624 60.538 59.9564L51.0103 59.9355C48.2979 59.9296 46.9447 58.5704 46.9507 55.858L46.9962 35.1031C47.0021 32.3907 48.3613 31.0375 51.0737 31.0434L57.0478 31.0565L57.026 40.9962L51.6184 40.9844C50.9317 40.9829 50.4852 41.0849 50.2787 41.2904C50.1066 41.4961 50.0198 41.9251 50.0184 42.5774L50.0056 48.397C50.0041 49.0837 50.089 49.5131 50.2603 49.6851C50.4658 49.8916 50.912 49.9956 51.5986 49.9971Z" fill="#08D9D6"/>
    <rect x="40.1021" y="14.2015" width="1.52853" height="16.7332" rx="0.764264" transform="rotate(-43.7798 40.1021 14.2015)" fill="white" stroke="#08D9D6" stroke-width="1.52853"/>
    <rect x="82.5478" y="14.9204" width="1.31853" height="15.7063" rx="0.659267" transform="rotate(53.4963 82.5478 14.9204)" fill="white" stroke="#08D9D6" stroke-width="1.31853"/>
    <rect x="75.6179" y="25.1782" width="0.254855" height="3.03582" rx="0.127428" transform="rotate(53.4963 75.6179 25.1782)" fill="white" stroke="#08D9D6" stroke-width="0.254855"/>
    <rect x="64.1788" y="25.3353" width="0.254855" height="3.03582" rx="0.127428" transform="rotate(-37.8734 64.1788 25.3353)" fill="white" stroke="#08D9D6" stroke-width="0.254855"/>
    <rect x="59.5237" y="25.1794" width="0.254855" height="3.03582" rx="0.127428" transform="rotate(50.5275 59.5237 25.1794)" fill="white" stroke="#08D9D6" stroke-width="0.254855"/>
    <rect x="48.1783" y="26.3826" width="0.254855" height="3.03582" rx="0.127428" transform="rotate(-53.2518 48.1783 26.3826)" fill="white" stroke="#08D9D6" stroke-width="0.254855"/>
    <rect x="54.9863" y="22.1574" width="0.254855" height="3.03582" rx="0.127428" transform="rotate(15.8282 54.9863 22.1574)" fill="white" stroke="#08D9D6" stroke-width="0.254855"/>
    <rect x="52.002" y="24.9985" width="3" height="3" rx="1.5" fill="#08D9D6" stroke="#08D9D6" stroke-width="2"/>
    <rect x="68.002" y="23.9985" width="3" height="3" rx="1.5" fill="#08D9D6" stroke="#08D9D6" stroke-width="2"/>
</svg>
