<svg width="38" height="36" viewBox="0 0 38 36" fill="none" xmlns="http://www.w3.org/2000/svg">
<path d="M18.215 1.41591C18.4621 0.655485 19.5379 0.655484 19.785 1.41591L23.5295 12.9403C23.64 13.2804 23.9569 13.5106 24.3145 13.5106H36.4319C37.2315 13.5106 37.5639 14.5338 36.9171 15.0038L27.1138 22.1262C26.8246 22.3364 26.7035 22.709 26.814 23.049L30.5585 34.5734C30.8056 35.3339 29.9353 35.9662 29.2884 35.4962L19.4851 28.3738C19.1959 28.1636 18.8041 28.1636 18.5149 28.3738L8.71161 35.4962C8.06475 35.9662 7.19441 35.3339 7.44149 34.5734L11.186 23.049C11.2965 22.709 11.1754 22.3364 10.8862 22.1262L1.08291 15.0038C0.436053 14.5338 0.768492 13.5106 1.56805 13.5106H13.6855C14.0431 13.5106 14.36 13.2804 14.4705 12.9403L18.215 1.41591Z" fill="#08D9D6"/>
</svg>
