<svg width="397" height="81" viewBox="0 0 397 81" fill="none" xmlns="http://www.w3.org/2000/svg">
    <path d="M15.12 24.4002V20.7602C15.12 20.2536 15.04 19.9202 14.88 19.7602C14.72 19.6002 14.3867 19.5202 13.88 19.5202H5.2C3.09333 19.5202 2.04 18.4669 2.04 16.3602V11.7602C2.04 9.65358 3.09333 8.60024 5.2 8.60024H19C21.1067 8.60024 22.16 9.65358 22.16 11.7602V14.6402H15.04V12.2002C15.04 11.6936 14.96 11.3602 14.8 11.2002C14.64 11.0402 14.3067 10.9602 13.8 10.9602H10.64C10.1067 10.9602 9.76 11.0402 9.6 11.2002C9.46667 11.3602 9.4 11.6936 9.4 12.2002V15.9202C9.4 16.4536 9.46667 16.8002 9.6 16.9602C9.76 17.0936 10.1067 17.1602 10.64 17.1602H19.28C21.3867 17.1602 22.44 18.2136 22.44 20.3202V24.8402C22.44 26.9469 21.3867 28.0002 19.28 28.0002H5.36C3.25333 28.0002 2.2 26.9469 2.2 24.8402V21.9602H9.36V24.4002C9.36 24.9336 9.44 25.2802 9.6 25.4402C9.76 25.5736 10.0933 25.6402 10.6 25.6402H13.88C14.3867 25.6402 14.72 25.5736 14.88 25.4402C15.04 25.2802 15.12 24.9336 15.12 24.4002ZM36.8522 8.60024H45.3722C47.4789 8.60024 48.5322 9.65358 48.5322 11.7602V28.0002H41.2122V12.2002C41.2122 11.6936 41.1322 11.3602 40.9722 11.2002C40.8122 11.0402 40.4789 10.9602 39.9722 10.9602H36.0122C35.0522 10.9602 34.5722 11.3736 34.5722 12.2002V28.0002H27.2122V1.24024H34.5722V9.76024C34.9455 8.98691 35.7055 8.60024 36.8522 8.60024ZM62.0166 25.6402H65.9366C66.8966 25.6402 67.3766 25.2269 67.3766 24.4002V12.2002C67.3766 11.3736 66.8966 10.9602 65.9366 10.9602H62.0166C61.4832 10.9602 61.1366 11.0402 60.9766 11.2002C60.8432 11.3602 60.7766 11.6936 60.7766 12.2002V24.4002C60.7766 24.9336 60.8432 25.2802 60.9766 25.4402C61.1366 25.5736 61.4832 25.6402 62.0166 25.6402ZM67.3766 8.60024H74.7366V28.0002H67.3766V26.8402C67.0032 27.6136 66.2432 28.0002 65.0966 28.0002H56.5766C54.4699 28.0002 53.4166 26.9469 53.4166 24.8402V11.7602C53.4166 9.65358 54.4699 8.60024 56.5766 8.60024H65.0966C66.2432 8.60024 67.0032 8.98691 67.3766 9.76024V8.60024ZM91.9009 8.52024H94.4609V11.2802H90.4609C88.5143 11.2802 87.5409 12.2936 87.5409 14.3202V28.0002H80.1809V8.60024H87.5409V10.9202C88.1543 9.32024 89.6076 8.52024 91.9009 8.52024ZM104.527 16.8802H111.767V12.2002C111.767 11.6936 111.687 11.3602 111.527 11.2002C111.367 11.0402 111.033 10.9602 110.527 10.9602H105.767C105.233 10.9602 104.887 11.0402 104.727 11.2002C104.593 11.3602 104.527 11.6936 104.527 12.2002V16.8802ZM100.327 8.60024H115.727C117.833 8.60024 118.887 9.65358 118.887 11.7602V19.2402H104.527V24.4002C104.527 24.9336 104.593 25.2802 104.727 25.4402C104.887 25.5736 105.233 25.6402 105.767 25.6402H110.487C111.02 25.6402 111.353 25.5736 111.487 25.4402C111.647 25.2802 111.727 24.9336 111.727 24.4002V21.8402H118.847V24.8402C118.847 26.9469 117.793 28.0002 115.687 28.0002H100.327C98.2199 28.0002 97.1666 26.9469 97.1666 24.8402V11.7602C97.1666 9.65358 98.2199 8.60024 100.327 8.60024Z" fill="white"/>
    <path d="M141.511 33.6402H136.431V31.2802H139.111C140.071 31.2802 140.791 31.1336 141.271 30.8402C141.778 30.5469 142.178 30.0536 142.471 29.3602L143.071 28.0002H140.271L132.591 8.60024H140.271L144.911 23.2402L149.631 8.60024H157.031L149.031 28.6402C148.685 29.5469 148.338 30.2669 147.991 30.8002C147.671 31.3336 147.231 31.8402 146.671 32.3202C145.685 33.2002 143.965 33.6402 141.511 33.6402ZM173.748 24.4002V12.2002C173.748 11.6936 173.668 11.3602 173.508 11.2002C173.348 11.0402 173.014 10.9602 172.508 10.9602H168.188C167.681 10.9602 167.348 11.0402 167.188 11.2002C167.028 11.3602 166.948 11.6936 166.948 12.2002V24.4002C166.948 24.9336 167.028 25.2802 167.188 25.4402C167.348 25.5736 167.681 25.6402 168.188 25.6402H172.508C173.014 25.6402 173.348 25.5736 173.508 25.4402C173.668 25.2802 173.748 24.9336 173.748 24.4002ZM162.788 8.60024H177.908C180.014 8.60024 181.068 9.65358 181.068 11.7602V24.8402C181.068 26.9469 180.014 28.0002 177.908 28.0002H162.788C160.681 28.0002 159.628 26.9469 159.628 24.8402V11.7602C159.628 9.65358 160.681 8.60024 162.788 8.60024ZM199.916 8.60024H207.276V28.0002H199.916V26.8402C199.542 27.6136 198.782 28.0002 197.636 28.0002H189.116C187.009 28.0002 185.956 26.9469 185.956 24.8402V8.60024H193.316V24.4002C193.316 24.9336 193.382 25.2802 193.516 25.4402C193.676 25.5736 194.022 25.6402 194.556 25.6402H198.476C199.436 25.6402 199.916 25.2269 199.916 24.4002V8.60024ZM224.44 8.52024H227V11.2802H223C221.053 11.2802 220.08 12.2936 220.08 14.3202V28.0002H212.72V8.60024H220.08V10.9202C220.693 9.32024 222.147 8.52024 224.44 8.52024ZM253.362 24.4002V20.7602C253.362 20.2536 253.282 19.9202 253.122 19.7602C252.962 19.6002 252.629 19.5202 252.122 19.5202H243.442C241.336 19.5202 240.282 18.4669 240.282 16.3602V11.7602C240.282 9.65358 241.336 8.60024 243.442 8.60024H257.242C259.349 8.60024 260.402 9.65358 260.402 11.7602V14.6402H253.282V12.2002C253.282 11.6936 253.202 11.3602 253.042 11.2002C252.882 11.0402 252.549 10.9602 252.042 10.9602H248.882C248.349 10.9602 248.002 11.0402 247.842 11.2002C247.709 11.3602 247.642 11.6936 247.642 12.2002V15.9202C247.642 16.4536 247.709 16.8002 247.842 16.9602C248.002 17.0936 248.349 17.1602 248.882 17.1602H257.522C259.629 17.1602 260.682 18.2136 260.682 20.3202V24.8402C260.682 26.9469 259.629 28.0002 257.522 28.0002H243.602C241.496 28.0002 240.442 26.9469 240.442 24.8402V21.9602H247.602V24.4002C247.602 24.9336 247.682 25.2802 247.842 25.4402C248.002 25.5736 248.336 25.6402 248.842 25.6402H252.122C252.629 25.6402 252.962 25.5736 253.122 25.4402C253.282 25.2802 253.362 24.9336 253.362 24.4002ZM277.934 10.9602H273.934V24.3202C273.934 24.8536 274.014 25.2002 274.174 25.3602C274.334 25.4936 274.668 25.5602 275.174 25.5602H277.894V28.0002H269.734C267.628 28.0002 266.574 26.9469 266.574 24.8402V10.9602H263.454V8.60024H266.574V4.16024H273.934V8.60024H277.934V10.9602ZM295.583 24.4002V12.2002C295.583 11.6936 295.503 11.3602 295.343 11.2002C295.183 11.0402 294.85 10.9602 294.343 10.9602H290.023C289.517 10.9602 289.183 11.0402 289.023 11.2002C288.863 11.3602 288.783 11.6936 288.783 12.2002V24.4002C288.783 24.9336 288.863 25.2802 289.023 25.4402C289.183 25.5736 289.517 25.6402 290.023 25.6402H294.343C294.85 25.6402 295.183 25.5736 295.343 25.4402C295.503 25.2802 295.583 24.9336 295.583 24.4002ZM284.623 8.60024H299.743C301.85 8.60024 302.903 9.65358 302.903 11.7602V24.8402C302.903 26.9469 301.85 28.0002 299.743 28.0002H284.623C282.517 28.0002 281.463 26.9469 281.463 24.8402V11.7602C281.463 9.65358 282.517 8.60024 284.623 8.60024ZM319.792 8.52024H322.352V11.2802H318.352C316.405 11.2802 315.432 12.2936 315.432 14.3202V28.0002H308.072V8.60024H315.432V10.9202C316.045 9.32024 317.498 8.52024 319.792 8.52024ZM332.817 28.0002H325.457V8.60024H332.817V28.0002ZM325.337 5.68024V1.24024H332.977V5.68024H325.337ZM345.503 16.8802H352.743V12.2002C352.743 11.6936 352.663 11.3602 352.503 11.2002C352.343 11.0402 352.01 10.9602 351.503 10.9602H346.743C346.21 10.9602 345.863 11.0402 345.703 11.2002C345.57 11.3602 345.503 11.6936 345.503 12.2002V16.8802ZM341.303 8.60024H356.703C358.81 8.60024 359.863 9.65358 359.863 11.7602V19.2402H345.503V24.4002C345.503 24.9336 345.57 25.2802 345.703 25.4402C345.863 25.5736 346.21 25.6402 346.743 25.6402H351.463C351.996 25.6402 352.33 25.5736 352.463 25.4402C352.623 25.2802 352.703 24.9336 352.703 24.4002V21.8402H359.823V24.8402C359.823 26.9469 358.77 28.0002 356.663 28.0002H341.303C339.196 28.0002 338.143 26.9469 338.143 24.8402V11.7602C338.143 9.65358 339.196 8.60024 341.303 8.60024ZM377.151 24.4002V20.7602C377.151 20.2536 377.071 19.9202 376.911 19.7602C376.751 19.6002 376.418 19.5202 375.911 19.5202H367.231C365.125 19.5202 364.071 18.4669 364.071 16.3602V11.7602C364.071 9.65358 365.125 8.60024 367.231 8.60024H381.031C383.138 8.60024 384.191 9.65358 384.191 11.7602V14.6402H377.071V12.2002C377.071 11.6936 376.991 11.3602 376.831 11.2002C376.671 11.0402 376.338 10.9602 375.831 10.9602H372.671C372.138 10.9602 371.791 11.0402 371.631 11.2002C371.498 11.3602 371.431 11.6936 371.431 12.2002V15.9202C371.431 16.4536 371.498 16.8002 371.631 16.9602C371.791 17.0936 372.138 17.1602 372.671 17.1602H381.311C383.418 17.1602 384.471 18.2136 384.471 20.3202V24.8402C384.471 26.9469 383.418 28.0002 381.311 28.0002H367.391C365.285 28.0002 364.231 26.9469 364.231 24.8402V21.9602H371.391V24.4002C371.391 24.9336 371.471 25.2802 371.631 25.4402C371.791 25.5736 372.125 25.6402 372.631 25.6402H375.911C376.418 25.6402 376.751 25.5736 376.911 25.4402C377.071 25.2802 377.151 24.9336 377.151 24.4002Z" fill="#08D9D6"/>
    <path d="M125.32 36.6002H133.36C135.467 36.6002 136.52 37.6536 136.52 39.7602V56.0002H129.16V40.2002C129.16 39.6936 129.08 39.3602 128.92 39.2002C128.76 39.0402 128.427 38.9602 127.92 38.9602H124.4C123.387 38.9602 122.88 39.4669 122.88 40.4802V56.0002H115.56V40.2002C115.56 39.6936 115.48 39.3602 115.32 39.2002C115.16 39.0402 114.827 38.9602 114.32 38.9602H110.52C109.56 38.9602 109.08 39.3736 109.08 40.2002V56.0002H101.72V36.6002H109.08V37.7202C109.4 36.9736 110.147 36.6002 111.32 36.6002H119.72C121.32 36.6002 122.307 37.2002 122.68 38.4002C123 37.2002 123.88 36.6002 125.32 36.6002ZM155.361 36.6002H162.721V56.0002H155.361V54.8402C154.988 55.6136 154.228 56.0002 153.081 56.0002H144.561C142.454 56.0002 141.401 54.9469 141.401 52.8402V36.6002H148.761V52.4002C148.761 52.9336 148.828 53.2802 148.961 53.4402C149.121 53.5736 149.468 53.6402 150.001 53.6402H153.921C154.881 53.6402 155.361 53.2269 155.361 52.4002V36.6002ZM180.565 52.4002V48.7602C180.565 48.2536 180.485 47.9202 180.325 47.7602C180.165 47.6002 179.832 47.5202 179.325 47.5202H170.645C168.539 47.5202 167.485 46.4669 167.485 44.3602V39.7602C167.485 37.6536 168.539 36.6002 170.645 36.6002H184.445C186.552 36.6002 187.605 37.6536 187.605 39.7602V42.6402H180.485V40.2002C180.485 39.6936 180.405 39.3602 180.245 39.2002C180.085 39.0402 179.752 38.9602 179.245 38.9602H176.085C175.552 38.9602 175.205 39.0402 175.045 39.2002C174.912 39.3602 174.845 39.6936 174.845 40.2002V43.9202C174.845 44.4536 174.912 44.8002 175.045 44.9602C175.205 45.0936 175.552 45.1602 176.085 45.1602H184.725C186.832 45.1602 187.885 46.2136 187.885 48.3202V52.8402C187.885 54.9469 186.832 56.0002 184.725 56.0002H170.805C168.699 56.0002 167.645 54.9469 167.645 52.8402V49.9602H174.805V52.4002C174.805 52.9336 174.885 53.2802 175.045 53.4402C175.205 53.5736 175.539 53.6402 176.045 53.6402H179.325C179.832 53.6402 180.165 53.5736 180.325 53.4402C180.485 53.2802 180.565 52.9336 180.565 52.4002ZM200.138 56.0002H192.778V36.6002H200.138V56.0002ZM192.658 33.6802V29.2402H200.298V33.6802H192.658ZM226.343 43.5202H219.183V40.2002C219.183 39.6936 219.103 39.3602 218.943 39.2002C218.783 39.0402 218.45 38.9602 217.943 38.9602H214.063C213.53 38.9602 213.183 39.0402 213.023 39.2002C212.89 39.3602 212.823 39.6936 212.823 40.2002V52.4002C212.823 52.9336 212.89 53.2802 213.023 53.4402C213.183 53.5736 213.53 53.6402 214.063 53.6402H217.943C218.45 53.6402 218.783 53.5736 218.943 53.4402C219.103 53.2802 219.183 52.9336 219.183 52.4002V49.1602H226.343V52.8402C226.343 54.9469 225.29 56.0002 223.183 56.0002H208.623C206.517 56.0002 205.463 54.9469 205.463 52.8402V39.7602C205.463 37.6536 206.517 36.6002 208.623 36.6002H223.183C225.29 36.6002 226.343 37.6536 226.343 39.7602V43.5202Z" fill="#08D9D6"/>
    <path d="M195.8 62.8802H203.04V58.2002C203.04 57.6936 202.96 57.3602 202.8 57.2002C202.64 57.0402 202.307 56.9602 201.8 56.9602H197.04C196.507 56.9602 196.16 57.0402 196 57.2002C195.867 57.3602 195.8 57.6936 195.8 58.2002V62.8802ZM191.6 54.6002H207C209.107 54.6002 210.16 55.6536 210.16 57.7602V65.2402H195.8V70.4002C195.8 70.9336 195.867 71.2802 196 71.4402C196.16 71.5736 196.507 71.6402 197.04 71.6402H201.76C202.293 71.6402 202.627 71.5736 202.76 71.4402C202.92 71.2802 203 70.9336 203 70.4002V67.8402H210.12V70.8402C210.12 72.9469 209.067 74.0002 206.96 74.0002H191.6C189.493 74.0002 188.44 72.9469 188.44 70.8402V57.7602C188.44 55.6536 189.493 54.6002 191.6 54.6002ZM212.808 54.6002H220.048L224.928 69.4402L229.888 54.6002H237.128L229.528 74.0002H220.408L212.808 54.6002ZM247.441 62.8802H254.681V58.2002C254.681 57.6936 254.601 57.3602 254.441 57.2002C254.281 57.0402 253.947 56.9602 253.441 56.9602H248.681C248.147 56.9602 247.801 57.0402 247.641 57.2002C247.507 57.3602 247.441 57.6936 247.441 58.2002V62.8802ZM243.241 54.6002H258.641C260.747 54.6002 261.801 55.6536 261.801 57.7602V65.2402H247.441V70.4002C247.441 70.9336 247.507 71.2802 247.641 71.4402C247.801 71.5736 248.147 71.6402 248.681 71.6402H253.401C253.934 71.6402 254.267 71.5736 254.401 71.4402C254.561 71.2802 254.641 70.9336 254.641 70.4002V67.8402H261.761V70.8402C261.761 72.9469 260.707 74.0002 258.601 74.0002H243.241C241.134 74.0002 240.081 72.9469 240.081 70.8402V57.7602C240.081 55.6536 241.134 54.6002 243.241 54.6002ZM276.329 54.6002H284.849C286.955 54.6002 288.009 55.6536 288.009 57.7602V74.0002H280.649V58.2002C280.649 57.6936 280.569 57.3602 280.409 57.2002C280.275 57.0402 279.942 56.9602 279.409 56.9602H275.489C274.529 56.9602 274.049 57.3736 274.049 58.2002V74.0002H266.689V54.6002H274.049V55.7602C274.422 54.9869 275.182 54.6002 276.329 54.6002ZM305.653 56.9602H301.653V70.3202C301.653 70.8536 301.733 71.2002 301.893 71.3602C302.053 71.4936 302.386 71.5602 302.893 71.5602H305.613V74.0002H297.453C295.346 74.0002 294.293 72.9469 294.293 70.8402V56.9602H291.173V54.6002H294.293V50.1602H301.653V54.6002H305.653V56.9602ZM321.862 70.4002V66.7602C321.862 66.2536 321.782 65.9202 321.622 65.7602C321.462 65.6002 321.129 65.5202 320.622 65.5202H311.942C309.836 65.5202 308.782 64.4669 308.782 62.3602V57.7602C308.782 55.6536 309.836 54.6002 311.942 54.6002H325.742C327.849 54.6002 328.902 55.6536 328.902 57.7602V60.6402H321.782V58.2002C321.782 57.6936 321.702 57.3602 321.542 57.2002C321.382 57.0402 321.049 56.9602 320.542 56.9602H317.382C316.849 56.9602 316.502 57.0402 316.342 57.2002C316.209 57.3602 316.142 57.6936 316.142 58.2002V61.9202C316.142 62.4536 316.209 62.8002 316.342 62.9602C316.502 63.0936 316.849 63.1602 317.382 63.1602H326.022C328.129 63.1602 329.182 64.2136 329.182 66.3202V70.8402C329.182 72.9469 328.129 74.0002 326.022 74.0002H312.102C309.996 74.0002 308.942 72.9469 308.942 70.8402V67.9602H316.102V70.4002C316.102 70.9336 316.182 71.2802 316.342 71.4402C316.502 71.5736 316.836 71.6402 317.342 71.6402H320.622C321.129 71.6402 321.462 71.5736 321.622 71.4402C321.782 71.2802 321.862 70.9336 321.862 70.4002Z" fill="#08D9D6"/>
</svg>
