<svg class="fill-current text-blue-500" width="27" height="26" viewBox="0 0 27 26" xmlns="http://www.w3.org/2000/svg">
<path d="M17.0457 9.29443L14.7605 2.2614C14.3637 1.04031 12.6362 1.04033 12.2395 2.2614L9.95433 9.29443C9.91077 9.42849 9.78584 9.51925 9.64488 9.51925L2.24992 9.51925C0.966004 9.51925 0.432161 11.1622 1.47088 11.9169L7.45353 16.2635C7.56757 16.3464 7.61529 16.4932 7.57173 16.6273L5.28656 23.6603C4.88981 24.8814 6.28738 25.8968 7.3261 25.1421L13.3088 20.7955C13.4228 20.7126 13.5772 20.7126 13.6912 20.7955L19.6739 25.1421C20.7126 25.8968 22.1102 24.8814 21.7134 23.6603L19.4283 16.6273C19.3847 16.4932 19.4324 16.3464 19.5465 16.2635L25.5291 11.9169C26.5678 11.1622 26.034 9.51925 24.7501 9.51925L17.3551 9.51925C17.2142 9.51925 17.0892 9.42849 17.0457 9.29443Z" fill="#2C2C2C" stroke="#2C2C2C"/>
</svg>
