<svg width="60" height="60" viewBox="0 0 60 60" fill="none" xmlns="http://www.w3.org/2000/svg">
<g clip-path="url(#clip0_399_93)">
<rect x="40.5713" y="11.3799" width="7.51997" height="47.8904" transform="rotate(43.1507 40.5713 11.3799)" fill="#08D9D6"/>
<path d="M17.1418 48.3272L22.7894 42.3027C23.2283 41.8346 23.4431 41.4573 23.4338 41.1708C23.4492 40.9075 23.2105 40.5448 22.7177 40.0829L13.0712 31.0398C11.1246 29.215 11.0637 27.3293 12.8885 25.3827L19.1251 18.7299C20.9499 16.7834 22.8356 16.7225 24.7822 18.5473L39.6771 32.5104C41.6236 34.3352 41.6845 36.2208 39.8597 38.1674L35.8406 42.4548L28.7073 35.7677L32.3453 31.8869C32.8073 31.3941 33.0221 31.0168 32.9897 30.755C32.9805 30.4686 32.7418 30.1059 32.2736 29.6671L28.0971 25.7519C27.6043 25.2899 27.2147 25.0635 26.9283 25.0728C26.6896 25.0805 26.3393 25.3307 25.8773 25.8235L20.4029 31.6632C19.9409 32.156 19.7023 32.5341 19.6869 32.7974C19.7192 33.0592 19.9818 33.4211 20.4746 33.8831L30.1212 42.9262C32.0677 44.751 32.1286 46.6366 30.3038 48.5832L23.894 55.4208C22.0692 57.3674 20.1835 57.4283 18.2369 55.6035L3.34203 41.6404C1.39547 39.8156 1.33458 37.9299 3.15937 35.9833L7.17853 31.696L14.3118 38.383L10.6738 42.2638C10.2118 42.7566 9.98545 43.1462 9.9947 43.4327C10.027 43.6945 10.2773 44.0448 10.7455 44.4837L14.9219 48.3989C15.4147 48.8608 15.7805 49.088 16.0192 49.0803C16.3056 49.071 16.6798 48.82 17.1418 48.3272Z" fill="#08D9D6"/>
<rect x="42.1055" y="6.85059" width="11.0821" height="11.8736" rx="1.97894" transform="rotate(43.1507 42.1055 6.85059)" fill="#08D9D6"/>
<rect x="44.415" y="9.01562" width="0.791576" height="49.4735" transform="rotate(43.1507 44.415 9.01562)" fill="black"/>
<rect x="46.1484" y="10.6401" width="0.791576" height="49.4735" transform="rotate(43.1507 46.1484 10.6401)" fill="black"/>
<rect x="47.8809" y="12.2642" width="0.791576" height="49.4735" transform="rotate(43.1507 47.8809 12.2642)" fill="black"/>
<ellipse cx="45.0605" cy="18.9165" rx="6.96828" ry="14" transform="rotate(142.42 45.0605 18.9165)" fill="#08D9D6"/>
<ellipse cx="49.9452" cy="15.4854" rx="10.5" ry="8.5" transform="rotate(54.412 49.9452 15.4854)" fill="#08D9D6"/>
<path d="M42.5 8C42.5 16.5 48.0627 22.404 55.0634 24.905" stroke="black" stroke-width="1.3" stroke-linecap="round"/>
</g>
<defs>
<clipPath id="clip0_399_93">
<rect width="60" height="60" fill="white"/>
</clipPath>
</defs>
</svg>
