<svg width="60" height="60" viewBox="0 0 60 60" fill="none" xmlns="http://www.w3.org/2000/svg">
<g clip-path="url(#clip0_399_94)">
<rect x="52.5811" y="12.3594" width="5.57742" height="50.1967" transform="rotate(47.1531 52.5811 12.3594)" fill="#08D9D6"/>
<path d="M27.1307 28.2137C26.4094 26.578 27.0802 24.6633 28.6646 23.8353L33.5651 21.2743C34.846 20.6049 36.3818 20.6441 37.6268 21.3781L40.2982 22.9529C40.6475 23.1588 40.9651 23.4145 41.2408 23.7118L44.1866 26.8878C44.4725 27.1959 44.7102 27.5454 44.8919 27.9245L46.0949 30.4345C46.7403 31.7812 46.6189 33.3698 45.7764 34.6027L42.6917 39.1164C41.7173 40.5422 39.8269 41.0078 38.3018 40.1977V40.1977C34.9722 38.4292 31.6754 42.6003 34.1652 45.4313L34.9381 46.3102C36.4712 48.0533 35.9806 50.77 33.9348 51.867L27.9571 55.072C26.6098 55.7945 24.9756 55.7243 23.6951 54.889L18.9804 51.8136C18.694 51.6267 18.4315 51.4054 18.1989 51.1547L15.6113 48.3649C15.3584 48.0923 15.1431 47.7872 14.9709 47.4577L12.5717 42.867C11.9315 41.6419 11.9378 40.1797 12.5885 38.9603L15.9865 32.5922C17.0803 30.5422 19.8775 30.1771 21.4921 31.8481V31.8481C24.126 34.5741 28.66 31.6822 27.1307 28.2137V28.2137Z" fill="#08D9D6"/>
<path d="M58.1763 9.37306C58.8176 9.39725 59.3177 9.93679 59.2934 10.578L59.0987 15.7013C59.0752 16.3191 58.5721 16.8102 57.954 16.8188L52.5444 16.894C51.856 16.9036 51.3103 16.3157 51.3711 15.6298L51.8495 10.2378C51.9042 9.6216 52.4322 9.15633 53.0505 9.17965L58.1763 9.37306Z" fill="#08D9D6"/>
<line x1="17.6748" y1="48.5404" x2="14.6079" y2="51.385" stroke="#08D9D6" stroke-width="2.78871"/>
<line x1="35.7724" y1="11.5241" x2="0.0856092" y2="38.3436" stroke="#08D9D6" stroke-width="1.39435"/>
<path d="M34.9735 12.0924C32.822 9.57879 -1.51025 33.4824 1.06104 37.8282" stroke="#08D9D6" stroke-width="1.39435"/>
</g>
<defs>
<clipPath id="clip0_399_94">
<rect width="60" height="60" fill="white"/>
</clipPath>
</defs>
</svg>
