<svg width="60" height="60" viewBox="0 0 60 60" fill="none" xmlns="http://www.w3.org/2000/svg">
<g clip-path="url(#clip0_55_2)">
<path d="M0.543353 45.0259C0.409322 43.7881 5.16229 43.3416 6.91667 40.8733C8.67104 38.405 8.26896 34.6914 7.20825 33.0635C6.14754 31.4356 8.79358 31.368 8.44101 29.2786C8.08845 27.1893 8.57805 25.8764 9.2862 25.415C9.99434 24.9536 12.2208 22.1777 13.299 22.8003C14.3772 23.423 15.7585 24.5108 16.1316 20.9547C16.5047 17.3987 17.5159 17.4024 18.4426 17.7925C19.3693 18.1826 21.2897 19.5817 23.0935 18.7377C23.4712 18.4916 24.9352 20.188 25.62 21.067C25.7832 20.6294 26.3894 19.7706 27.5084 19.8366C28.9072 19.9191 27.628 17.4397 29.4668 14.585C31.3057 11.7304 35.5691 12.5968 36.0412 12.2892C36.5133 11.9816 37.8626 10.4399 37.9646 9.0482C38.0666 7.65654 41.2868 5.88969 43.3937 5.51077C45.5006 5.13185 48.0797 4.44534 49.3764 5.91948C50.6732 7.39363 55.1756 3.46611 56.4724 4.94026C56.2661 6.92942 57.4725 10.3446 58.3052 11.3658C59.2485 12.5227 56.71 16.3385 58.8908 17.9415C61.0717 19.5445 56.4458 19.8659 54.1524 22.0228C50.6446 19.1057 49.7079 21.148 47.511 23.6997C45.3141 26.2514 39.3234 23.0255 41.0677 31.8735C40.14 33.0301 38.2607 35.8227 38.1651 37.7403C38.0455 40.1372 35.1489 36.7238 33.5636 38.4194C31.9783 40.1149 34.0502 41.7466 33.0215 42.7481C31.9928 43.7497 27.4584 45.0477 27.3563 46.4394C27.2543 47.831 27.7584 50.1529 26.4091 51.6947C25.0598 53.2364 23.6435 54.1592 23.0694 55.8585C22.4953 57.5577 18.1794 59.7072 17.4043 59.5497C16.6291 59.3922 10.7309 58.5971 9.31461 59.5199C7.89831 60.4427 4.27609 58.496 1.53103 55.3151C-1.21403 52.1343 0.677384 46.2638 0.543353 45.0259Z" fill="#08D9D6" stroke="black"/>
</g>
<defs>
<clipPath id="clip0_55_2">
<rect width="60" height="60" fill="white"/>
</clipPath>
</defs>
</svg>
