<svg width="60" height="60" viewBox="0 0 60 60" fill="none" xmlns="http://www.w3.org/2000/svg">
<g clip-path="url(#clip0_399_95)">
<rect x="48.8486" y="14.5952" width="12.299" height="29.5106" rx="3.19034" transform="rotate(22.6455 48.8486 14.5952)" fill="#08D9D6"/>
<rect width="15.1541" height="29.5106" rx="3.19034" transform="matrix(-0.922904 0.385029 0.385029 0.922904 13.9854 15.3926)" fill="#08D9D6"/>
<path d="M39.0855 14.6194C39.1808 14.1725 39.6312 13.8969 40.0725 14.0154L42.5023 14.6679C42.9277 14.7821 43.18 15.2196 43.0657 15.6451L36.9352 38.4728C36.8233 38.8893 36.4007 39.1414 35.981 39.042L34.7397 38.7479C34.3179 38.6479 34.0531 38.2294 34.1435 37.8055L39.0855 14.6194Z" fill="#08D9D6"/>
<path d="M23.3295 14.6194C23.2343 14.1725 22.7838 13.8969 22.3426 14.0154L19.9127 14.6679C19.4873 14.7821 19.2351 15.2196 19.3493 15.6451L25.4798 38.4728C25.5917 38.8893 26.0144 39.1414 26.434 39.042L27.6754 38.7479C28.0972 38.6479 28.3619 38.2294 28.2716 37.8055L23.3295 14.6194Z" fill="#08D9D6"/>
<path d="M28.7658 13.8473C28.7372 13.3882 29.1018 13 29.5619 13H32.6755C33.1258 13 33.4868 13.3725 33.4727 13.8225L32.725 37.75C32.7115 38.1806 32.3586 38.5227 31.9278 38.5227H31.0574C30.6362 38.5227 30.2876 38.1952 30.2613 37.7749L28.7658 13.8473Z" fill="#08D9D6"/>
</g>
<defs>
<clipPath id="clip0_399_95">
<rect width="60" height="60" fill="white"/>
</clipPath>
</defs>
</svg>
