<svg width="60" height="60" viewBox="0 0 60 60" fill="none" xmlns="http://www.w3.org/2000/svg">
<g clip-path="url(#clip0_399_91)">
<rect x="34.7119" y="15.8965" width="11.1828" height="47.371" rx="5.5914" transform="rotate(42.2232 34.7119 15.8965)" fill="#08D9D6"/>
<path d="M53.1808 20.704C54.0646 19.6004 54.7224 18.3336 55.1166 16.9759C55.5109 15.6181 55.6338 14.196 55.4785 12.7907C55.3231 11.3855 54.8925 10.0246 54.2112 8.78572C53.5299 7.54687 52.6112 6.45435 51.5077 5.57053C50.4042 4.6867 49.1374 4.02889 47.7796 3.63465C46.4219 3.24041 44.9998 3.11745 43.5945 3.27281C42.1892 3.42817 40.8283 3.85879 39.5895 4.54009C38.3506 5.22139 37.2581 6.14003 36.3743 7.24356L44.7775 13.9738L53.1808 20.704Z" fill="#08D9D6"/>
<path d="M32.3839 10.9525C31.6443 11.8225 31.1241 12.8643 30.8531 14.0185C30.582 15.1727 30.5653 16.4167 30.804 17.6794C31.0427 18.9421 31.5321 20.1988 32.2443 21.3778C32.9564 22.5568 33.8774 23.6349 34.9546 24.5507C36.0318 25.4664 37.2441 26.2018 38.5223 26.7149C39.8005 27.228 41.1196 27.5088 42.4043 27.5411C43.689 27.5735 44.914 27.3568 46.0096 26.9034C47.1051 26.4501 48.0496 25.769 48.7892 24.899L40.5866 17.9257L32.3839 10.9525Z" fill="#08D9D6"/>
<rect x="33.874" y="9.67041" width="1.85161" height="21.63" transform="rotate(-49.7762 33.874 9.67041)" fill="#08D9D6"/>
</g>
<defs>
<clipPath id="clip0_399_91">
<rect width="60" height="60" fill="white"/>
</clipPath>
</defs>
</svg>
