<svg width="60" height="60" viewBox="0 0 60 60" fill="none" xmlns="http://www.w3.org/2000/svg">
<g clip-path="url(#clip0_399_96)">
<path d="M4.6026 12.4831C4.2806 12.3316 3.92476 12.2663 3.56993 12.2936V12.2936C1.19524 12.4763 0.463428 9.1491 2.69562 8.31852L11.6213 4.99735C13.0281 4.47388 14.6117 4.93659 15.5154 6.13517L45.5697 45.9973C47.8492 49.0207 47.0935 53.342 43.9233 55.4125V55.4125C40.768 57.4732 36.5286 56.4486 34.6627 53.1743L16.5423 21.3764C14.8829 18.4645 12.3649 16.1359 9.3323 14.7088L4.6026 12.4831Z" fill="#08D9D6"/>
<path d="M35.4148 22.0352C35.8038 18.0044 38.9116 14.7692 42.9235 14.2186L47.2351 13.6268C53.6921 12.7405 57.8192 20.3077 53.5777 25.2563V25.2563C52.4165 26.611 51.8092 28.354 51.8773 30.137L52.5345 47.365C52.749 52.9859 48.1898 57.6291 42.5658 57.5171V57.5171C36.8711 57.4037 32.4774 52.4677 33.0246 46.7982L34.0444 36.2325L35.4148 22.0352Z" fill="#08D9D6"/>
</g>
<defs>
<clipPath id="clip0_399_96">
<rect width="60" height="60" fill="white"/>
</clipPath>
</defs>
</svg>
