<svg width="40" height="40" viewBox="0 0 40 40" fill="none" xmlns="http://www.w3.org/2000/svg">
    <path d="M2.41812 6.3306C2.18247 6.21971 1.92207 6.17191 1.6624 6.19189V6.19189C-0.0754195 6.32559 -0.610966 3.89072 1.02257 3.28289L7.55447 0.852427C8.584 0.469347 9.7429 0.807963 10.4042 1.68509L32.3982 30.8565C34.0663 33.0691 33.5134 36.2315 31.1934 37.7467V37.7467C28.8843 39.2547 25.7819 38.5049 24.4164 36.1088L11.1557 12.8388C9.94134 10.7078 8.09863 9.0037 5.87936 7.95937L2.41812 6.3306Z" fill="#08D9D6"/>
    <path d="M24.9668 13.321C25.2515 10.3713 27.5258 8.00372 30.4617 7.60075L33.617 7.16766C38.3423 6.51908 41.3625 12.0569 38.2586 15.6782V15.6782C37.4088 16.6696 36.9644 17.9452 37.0142 19.25L37.4952 31.8576C37.6521 35.9711 34.3156 39.3689 30.2 39.287V39.287C26.0326 39.204 22.8172 35.5918 23.2177 31.4428L23.964 23.7108L24.9668 13.321Z" fill="#08D9D6"/>
</svg>
