<svg width="23" height="35" viewBox="0 0 23 35" fill="none" xmlns="http://www.w3.org/2000/svg">
    <rect x="8.81836" y="2.85315" width="4.92794" height="31.3832" fill="#08D9D6"/>
    <path d="M14.1759 30.9459L14.1759 25.5346C14.1759 25.114 14.1095 24.8374 13.9767 24.7046C13.866 24.5718 13.5894 24.5054 13.1467 24.5054H4.48183C2.73336 24.5054 1.85913 23.6312 1.85913 21.8827L1.85913 15.9069C1.85913 14.1584 2.73336 13.2842 4.48183 13.2842H17.8609C19.6094 13.2842 20.4836 14.1584 20.4836 15.9069V19.758H14.0763V16.2721C14.0763 15.8294 14.0099 15.5528 13.8771 15.4421C13.7443 15.3093 13.4676 15.2429 13.0471 15.2429H9.29565C8.853 15.2429 8.56528 15.3093 8.43249 15.4421C8.32182 15.5528 8.26649 15.8294 8.26649 16.2721V21.5175C8.26649 21.9602 8.32182 22.2479 8.43249 22.3807C8.56528 22.4913 8.853 22.5467 9.29565 22.5467H17.9605C19.709 22.5467 20.5832 23.4209 20.5832 25.1694V31.3111C20.5832 33.0596 19.709 33.9338 17.9605 33.9338H4.58143C2.83296 33.9338 1.95873 33.0596 1.95873 31.3111L1.95873 27.4601H8.36609L8.36609 30.9459C8.36609 31.3886 8.43249 31.6763 8.56528 31.8091C8.69808 31.9198 8.97473 31.9751 9.39525 31.9751H13.1467C13.5894 31.9751 13.866 31.9198 13.9767 31.8091C14.1095 31.6763 14.1759 31.3886 14.1759 30.9459Z" fill="#08D9D6"/>
    <rect x="7.52148" y="0.00012207" width="7.26223" height="7.78096" rx="1.29683" fill="#08D9D6"/>
    <rect x="9.5957" y="0.00012207" width="0.518731" height="32.4207" fill="black"/>
    <rect x="11.1523" y="0.00012207" width="0.518731" height="32.4207" fill="black"/>
    <rect x="12.709" width="0.518731" height="32.4207" fill="black"/>
</svg>
