<svg width="60" height="60" viewBox="0 0 60 60" fill="none" xmlns="http://www.w3.org/2000/svg">
<g clip-path="url(#clip0_399_87)">
<path d="M22.4043 21.5803C22.602 20.6635 23.7218 20.3107 24.4088 20.9487L41.9859 37.2743C42.6685 37.9084 42.4087 39.0442 41.5185 39.3179L33.5982 41.7527C33.1664 41.8855 32.8445 42.2481 32.7637 42.693L29.9436 58.2168C29.824 58.8755 29.1927 59.3117 28.5348 59.1904L9.52116 55.6828C9.06993 55.5995 8.70464 55.2679 8.57807 54.8265L3.48468 37.0662C3.30395 36.436 3.65761 35.7764 4.28225 35.5787L19.8226 30.6603C20.2364 30.5293 20.5483 30.1864 20.6399 29.7619L22.4043 21.5803Z" fill="#08D9D6"/>
<rect width="7.95634" height="55.2097" transform="matrix(0.739873 0.672747 -0.674438 0.738331 48.4521 6.59277)" fill="#08D9D6"/>
<rect width="10.1882" height="13.6883" rx="2.39373" transform="matrix(0.739873 0.672747 -0.674438 0.738331 50.8691 2)" fill="#08D9D6"/>
<rect width="0.845452" height="59.904" transform="matrix(0.739873 0.672747 -0.674438 0.738331 53.3125 4.20508)" fill="black"/>
<rect width="0.83751" height="60.4852" transform="matrix(0.739873 0.672747 -0.674438 0.738331 55.7041 6.35596)" fill="black"/>
<rect x="10.8203" y="47.2056" width="1.2096" height="9.38327" transform="rotate(-47.1624 10.8203 47.2056)" fill="black"/>
</g>
<defs>
<clipPath id="clip0_399_87">
<rect width="60" height="60" fill="white" transform="translate(0.000976562)"/>
</clipPath>
</defs>
</svg>
