<svg width="60" height="60" viewBox="0 0 60 60" fill="none" xmlns="http://www.w3.org/2000/svg">
<g clip-path="url(#clip0_38_2)">
<path d="M10.9364 16.0942L18.6915 17.7446C20.9598 7.08568 33.3753 8.71502 31.2719 18.5987C29.7047 25.963 16 21 16 21C16 21 12.4346 31.9612 11.3622 37L20.2811 38.8779L22.2339 29.6401C31.6279 31.2342 37.069 27.5303 39.1312 17.8404C40.5747 11.0575 39.4802 4.74728 28.0492 2.31459C16.6182 -0.118113 12.3387 9.50505 10.9364 16.0942Z" fill="#08D9D6"/>
<path d="M10.3497 41.6964L19.2644 43.5936L17.326 52.7022L8.41125 50.805L10.3497 41.6964Z" fill="#08D9D6"/>
<path d="M10.9364 16.0942L18.6915 17.7446C20.9598 7.08568 33.3753 8.71502 31.2719 18.5987C29.7047 25.963 16 21 16 21C16 21 12.4346 31.9612 11.3622 37L20.2811 38.8779L22.2339 29.6401C31.6279 31.2342 37.069 27.5303 39.1312 17.8404C40.5747 11.0575 39.4802 4.74728 28.0492 2.31459C16.6182 -0.118113 12.3387 9.50505 10.9364 16.0942Z" stroke="black" stroke-width="2"/>
<path d="M10.3497 41.6964L19.2644 43.5936L17.326 52.7022L8.41125 50.805L10.3497 41.6964Z" stroke="black" stroke-width="2"/>
<path d="M43.3254 1.70865L25.4944 41.9555L33.1709 45.5984L53.5396 6.47703L43.3254 1.70865Z" fill="#08D9D6"/>
<path d="M23.9381 45.3417L20.2064 53.4607L28.141 57.1076L31.8727 48.9886L23.9381 45.3417Z" fill="#08D9D6"/>
<path d="M43.3254 1.70865L25.4944 41.9555L33.1709 45.5984L53.5396 6.47703L43.3254 1.70865Z" stroke="black" stroke-width="2"/>
<path d="M23.9381 45.3417L20.2064 53.4607L28.141 57.1076L31.8727 48.9886L23.9381 45.3417Z" stroke="black" stroke-width="2"/>
</g>
<defs>
<clipPath id="clip0_38_2">
<rect width="60" height="60" fill="white"/>
</clipPath>
</defs>
</svg>
