<svg width="60" height="60" viewBox="0 0 60 60" fill="none" xmlns="http://www.w3.org/2000/svg">
<g clip-path="url(#clip0_399_90)">
<rect x="40.0586" y="18.3032" width="10.387" height="44" rx="5.1935" transform="rotate(42.727 40.0586 18.3032)" fill="#08D9D6"/>
<path d="M57.1715 22.9191C58.0014 21.9013 58.6227 20.7301 59 19.4722C59.3772 18.2144 59.5031 16.8945 59.3702 15.588C59.2374 14.2815 58.8486 13.014 58.2259 11.8578C57.6032 10.7016 56.7589 9.67935 55.7412 8.84944C54.7234 8.01953 53.5522 7.39821 52.2943 7.02095C51.0365 6.64368 49.7166 6.51787 48.4101 6.65068C47.1037 6.7835 45.8361 7.17235 44.6799 7.79502C43.5237 8.4177 42.5015 9.26201 41.6716 10.2797L49.4215 16.5994L57.1715 22.9191Z" fill="#08D9D6"/>
<path d="M37.9362 13.6914C37.2421 14.4934 36.7505 15.4569 36.4893 16.5267C36.2281 17.5965 36.2024 18.7518 36.4138 19.9265C36.6252 21.1013 37.0695 22.2725 37.7213 23.3734C38.3731 24.4742 39.2197 25.4831 40.2127 26.3424C41.2058 27.2018 42.3257 27.8947 43.5088 28.3818C44.6918 28.8688 45.9147 29.1403 47.1076 29.1808C48.3006 29.2214 49.4402 29.0301 50.4614 28.618C51.4826 28.2059 52.3655 27.581 53.0595 26.779L45.4979 20.2352L37.9362 13.6914Z" fill="#08D9D6"/>
<rect x="39.3311" y="12.5132" width="1.71985" height="20.0908" transform="rotate(-49.2724 39.3311 12.5132)" fill="#08D9D6"/>
<ellipse cx="24.1021" cy="21.177" rx="3.5" ry="1.5" transform="rotate(-11.5215 24.1021 21.177)" fill="#08D9D6"/>
<rect x="24.4551" y="10.3892" width="1" height="11" rx="0.5" transform="rotate(-11.5215 24.4551 10.3892)" fill="#08D9D6"/>
<ellipse cx="14.7037" cy="25.134" rx="3.5" ry="1.5" transform="rotate(-11.5215 14.7037 25.134)" fill="#08D9D6"/>
<rect x="15.0557" y="14.3462" width="1" height="11" rx="0.5" transform="rotate(-11.5215 15.0557 14.3462)" fill="#08D9D6"/>
<rect x="15.0625" y="14.377" width="11.18" height="1.05133" rx="0.525663" transform="rotate(-21.9882 15.0625 14.377)" fill="#08D9D6"/>
<ellipse cx="13.9432" cy="35.6126" rx="1.833" ry="0.785569" transform="rotate(-11.5215 13.9432 35.6126)" fill="#08D9D6"/>
<rect x="14.1279" y="29.9629" width="0.523713" height="5.76084" rx="0.261856" transform="rotate(-11.5215 14.1279 29.9629)" fill="#08D9D6"/>
<ellipse cx="9.02035" cy="37.6849" rx="1.833" ry="0.785569" transform="rotate(-11.5215 9.02035 37.6849)" fill="#08D9D6"/>
<rect x="9.20508" y="32.0356" width="0.523713" height="5.76084" rx="0.261856" transform="rotate(-11.5215 9.20508 32.0356)" fill="#08D9D6"/>
<rect x="9.20801" y="32.0513" width="5.85513" height="0.550593" rx="0.275297" transform="rotate(-21.9882 9.20801 32.0513)" fill="#08D9D6"/>
<ellipse cx="6.55433" cy="28.3305" rx="1.62933" ry="0.698284" transform="rotate(-11.5215 6.55433 28.3305)" fill="#08D9D6"/>
<rect x="6.71777" y="23.3086" width="0.465523" height="5.12075" rx="0.232761" transform="rotate(-11.5215 6.71777 23.3086)" fill="#08D9D6"/>
<ellipse cx="2.17835" cy="30.1727" rx="1.62933" ry="0.698284" transform="rotate(-11.5215 2.17835 30.1727)" fill="#08D9D6"/>
<rect x="2.34277" y="25.1504" width="0.465523" height="5.12075" rx="0.232761" transform="rotate(-11.5215 2.34277 25.1504)" fill="#08D9D6"/>
<rect x="2.3457" y="25.165" width="5.20456" height="0.489416" rx="0.244708" transform="rotate(-21.9882 2.3457 25.165)" fill="#08D9D6"/>
</g>
<defs>
<clipPath id="clip0_399_90">
<rect width="60" height="60" fill="white"/>
</clipPath>
</defs>
</svg>
