<svg width="60" height="60" viewBox="0 0 60 60" fill="none" xmlns="http://www.w3.org/2000/svg">
<g clip-path="url(#clip0_16_2)">
<path d="M20.397 28.8518C20.389 28.8907 20.3475 28.9691 20.2755 29.0834C21.5703 30.6384 30.9565 35.8566 35.2127 36.9147L35.2929 36.6615C35.5626 36.6003 35.8652 36.5153 36.1948 36.4079C31.715 35.4365 21.9508 30.4158 20.075 27.9566C20.1749 28.2542 20.282 28.5526 20.397 28.8518Z" fill="black"/>
<path d="M29.2816 55.6495C17.5 55.5 12 49.5 7.96868 44.6283C7.63185 45.0443 6.51541 46.4234 6.21248 46.798C11.5202 52.5746 17 58 28.5 58L29.2816 55.6495Z" fill="#08D9D6"/>
<path d="M54.3289 16.7029L53.9187 16.2276C49.9545 20.2671 26.0091 7.58276 26.5061 1.85557L25.8247 2.14915L23.5228 6.53959C23.6103 6.80154 23.7339 7.07114 23.8907 7.34712C27.2293 13.2224 45.6377 21.9882 51.8664 21.3997L54.3289 16.7029Z" fill="#08D9D6"/>
<path d="M54.454 15.2065C53.1671 10.3665 32.0219 -1.37049 26.9343 1.03875C27.5326 6.68929 52.0097 18.6111 54.454 15.2065Z" fill="#08D9D6"/>
<path fill-rule="evenodd" clip-rule="evenodd" d="M28.2607 58.8782C18.7424 61.4377 6.2836 50.7403 5.91686 47.1636C6.01324 47.0444 6.11183 46.9224 6.21248 46.798C11.5202 52.5746 17 58 28.5 58L28.2607 58.8782ZM7.96868 44.6283C7.69602 44.965 8.22534 44.3112 7.96868 44.6283C12 49.5 17.5 55.5 29.2816 55.6495L29.4975 54.9707C23.2954 56.2749 12.5373 50.6346 8.50571 43.965L7.96868 44.6283Z" fill="black"/>
<path d="M34.8688 38.0012C29.8277 36.2694 24.3416 33.6534 19.6225 30.0078C17.81 32.45 13.1602 38.2143 9.31946 42.9598C13.8538 49.6327 21.9724 54.0193 29.8862 53.7427L34.8688 38.0012Z" fill="#08D9D6"/>
<path d="M50.7604 22.2517C49.6638 22.5521 47.5884 22.1611 45.0485 21.324L38.7217 33.6429L50.7604 22.2517Z" fill="#08D9D6"/>
<path d="M37.8728 35.7653C41.7286 34.1001 47.274 30.5581 49.1899 26.5048L50.9029 23.2375L37.8728 35.7653Z" fill="#08D9D6"/>
<path d="M32.6189 34.2155C34.1467 34.8876 35.5127 35.3914 36.506 35.6053L43.444 22.5812L32.6189 34.2155Z" fill="#08D9D6"/>
<path d="M36.9442 17.9163L32.6894 32.8233L43.9319 20.9382C41.7688 20.1585 39.3476 19.1073 36.9442 17.9163Z" fill="#08D9D6"/>
<path d="M35.8601 18.4749L24.8525 30.1635C26.9637 31.4269 29.4288 32.746 31.6595 33.7815L35.8601 18.4749Z" fill="#08D9D6"/>
<path d="M28.3569 12.9146C28.1216 13.3635 26.1129 23.7347 25.138 28.8642L35.9013 17.3902C33.1755 15.9902 30.5247 14.4335 28.3569 12.9146Z" fill="#08D9D6"/>
<path d="M26.9994 15.0009L20.5756 27.2533C21.3387 27.9063 22.5348 28.7342 23.953 29.6153L26.9994 15.0009Z" fill="#08D9D6"/>
<path d="M23.4476 8.19233L20.6617 24.8252L27.1172 12.0092C25.2967 10.6185 23.9643 9.29409 23.4476 8.19233Z" fill="#08D9D6"/>
<path d="M22.8269 7.86693L20.8463 11.6447C19.6556 13.9874 18.0861 19.4662 19.4382 25.6497L22.8269 7.86693Z" fill="#08D9D6"/>
<path fill-rule="evenodd" clip-rule="evenodd" d="M23.5228 6.53959L22.8269 7.86693L19.4382 25.6497C19.6043 26.4095 19.8146 27.18 20.075 27.9566C21.9508 30.4158 31.715 35.4365 36.1948 36.4079C36.6982 36.244 37.2644 36.028 37.8728 35.7653L50.9029 23.2375L51.8664 21.3997C45.6377 21.9882 27.2293 13.2224 23.8907 7.34712C23.7339 7.07114 23.6103 6.80154 23.5228 6.53959ZM20.6617 24.8252L23.4476 8.19233C23.9643 9.29409 25.2967 10.6185 27.1172 12.0092C27.5089 12.3085 27.9233 12.6108 28.3569 12.9146C30.5247 14.4335 33.1755 15.9902 35.9013 17.3902C36.248 17.5682 36.5959 17.7437 36.9442 17.9163C39.3476 19.1073 41.7688 20.1585 43.9319 20.9382C44.3126 21.0755 44.6853 21.2043 45.0485 21.324C47.5884 22.1611 49.6638 22.5521 50.7604 22.2517L38.7217 33.6429L45.0485 21.324C44.6853 21.2043 44.3126 21.0755 43.9319 20.9382L32.6894 32.8233L36.9442 17.9163C36.5959 17.7437 36.248 17.5682 35.9013 17.3902L25.138 28.8642C26.1129 23.7347 28.1216 13.3635 28.3569 12.9146C27.9233 12.6108 27.5089 12.3085 27.1172 12.0092L20.6617 24.8252ZM20.5756 27.2533L26.9994 15.0009L23.953 29.6153C24.2441 29.7962 24.5445 29.9793 24.8525 30.1635L35.8601 18.4749L31.6595 33.7815C31.9849 33.9326 32.3053 34.0776 32.6189 34.2155L43.444 22.5812L36.506 35.6053C35.5127 35.3914 34.1467 34.8876 32.6189 34.2155C32.3053 34.0776 31.9849 33.9326 31.6595 33.7815C29.4288 32.746 26.9637 31.4269 24.8525 30.1635C24.5445 29.9793 24.2441 29.7962 23.953 29.6153C22.5348 28.7342 21.3387 27.9063 20.5756 27.2533Z" fill="black"/>
<path d="M53.9187 16.2276L54.454 15.2065C52.0097 18.6111 27.5326 6.68929 26.9343 1.03875L26.5061 1.85557C26.0091 7.58276 49.9545 20.2671 53.9187 16.2276Z" fill="black"/>
<path d="M19.6225 30.0078C24.3416 33.6534 29.8277 36.2694 34.8688 38.0012L35.2127 36.9147C30.9565 35.8566 21.5703 30.6384 20.2755 29.0834C20.148 29.2857 19.9247 29.6006 19.6225 30.0078Z" fill="black"/>
<path d="M29.8862 53.7427C21.9724 54.0193 13.8538 49.6327 9.31946 42.9598C9.04359 43.3007 8.77189 43.6363 8.50571 43.965C12.5373 50.6346 23.2954 56.2749 29.4975 54.9707L29.8862 53.7427Z" fill="black"/>
<path d="M53.9187 16.2276L54.3289 16.7029L51.8664 21.3997M53.9187 16.2276L54.454 15.2065M53.9187 16.2276C49.9545 20.2671 26.0091 7.58276 26.5061 1.85557M54.454 15.2065C53.1671 10.3665 32.0219 -1.37049 26.9343 1.03875M54.454 15.2065C52.0097 18.6111 27.5326 6.68929 26.9343 1.03875M26.9343 1.03875L26.5061 1.85557M26.5061 1.85557L25.8247 2.14915L23.5228 6.53959M23.5228 6.53959L22.8269 7.86693M23.5228 6.53959C23.6103 6.80154 23.7339 7.07114 23.8907 7.34712C27.2293 13.2224 45.6377 21.9882 51.8664 21.3997M51.8664 21.3997L50.9029 23.2375M22.8269 7.86693L20.8463 11.6447C19.6556 13.9874 18.0861 19.4662 19.4382 25.6497M22.8269 7.86693L19.4382 25.6497M19.4382 25.6497C19.6043 26.4095 19.8146 27.18 20.075 27.9566M19.6225 30.0078C24.3416 33.6534 29.8277 36.2694 34.8688 38.0012M19.6225 30.0078C19.9247 29.6006 20.148 29.2857 20.2755 29.0834M19.6225 30.0078C17.81 32.45 13.1602 38.2143 9.31946 42.9598M34.8688 38.0012L35.2127 36.9147M34.8688 38.0012L29.8862 53.7427M20.2755 29.0834C20.3475 28.9691 20.389 28.8907 20.397 28.8518C20.282 28.5526 20.1749 28.2542 20.075 27.9566M20.2755 29.0834C21.5703 30.6384 30.9564 35.8566 35.2127 36.9147M35.2127 36.9147L35.2929 36.6615C35.5626 36.6003 35.8652 36.5153 36.1948 36.4079M20.075 27.9566C21.9508 30.4158 31.715 35.4365 36.1948 36.4079M36.1948 36.4079C36.6982 36.244 37.2644 36.028 37.8728 35.7653M27.1172 12.0092C25.2967 10.6185 23.9643 9.29409 23.4476 8.19233L20.6617 24.8252L27.1172 12.0092ZM27.1172 12.0092C27.5089 12.3085 27.9233 12.6108 28.3569 12.9146M28.3569 12.9146C28.1216 13.3635 26.1129 23.7347 25.138 28.8642L35.9013 17.3902M28.3569 12.9146C30.5247 14.4335 33.1755 15.9902 35.9013 17.3902M35.9013 17.3902C36.248 17.5682 36.5959 17.7437 36.9442 17.9163M36.9442 17.9163L32.6894 32.8233L43.9319 20.9382M36.9442 17.9163C39.3476 19.1073 41.7688 20.1585 43.9319 20.9382M43.9319 20.9382C44.3126 21.0755 44.6853 21.2043 45.0485 21.324M45.0485 21.324C47.5884 22.1611 49.6638 22.5521 50.7604 22.2517L38.7217 33.6429L45.0485 21.324ZM37.8728 35.7653C41.7286 34.1001 47.274 30.5581 49.1899 26.5048L50.9029 23.2375M37.8728 35.7653L50.9029 23.2375M23.953 29.6153C22.5348 28.7342 21.3387 27.9063 20.5756 27.2533L26.9994 15.0009L23.953 29.6153ZM23.953 29.6153C24.2441 29.7962 24.5445 29.9793 24.8525 30.1635M24.8525 30.1635L35.8601 18.4749L31.6595 33.7815M24.8525 30.1635C26.9637 31.4269 29.4288 32.746 31.6595 33.7815M31.6595 33.7815C31.9849 33.9326 32.3053 34.0776 32.6189 34.2155M32.6189 34.2155C34.1467 34.8876 35.5127 35.3914 36.506 35.6053L43.444 22.5812L32.6189 34.2155ZM29.8862 53.7427C21.9724 54.0193 13.8538 49.6327 9.31946 42.9598M29.8862 53.7427L29.4975 54.9707M9.31946 42.9598C9.04359 43.3007 8.77189 43.6363 8.50571 43.965M8.50571 43.965C12.5373 50.6346 23.2954 56.2749 29.4975 54.9707M8.50571 43.965C8.32398 44.1895 8.14483 44.4107 7.96868 44.6283M8.50571 43.965L7.96868 44.6283M29.4975 54.9707L29.2816 55.6495M7.96868 44.6283C12 49.5 17.5 55.5 29.2816 55.6495M7.96868 44.6283C7.63185 45.0443 6.51541 46.4234 6.21248 46.798M7.96868 44.6283C8.22534 44.3112 7.69602 44.965 7.96868 44.6283ZM29.2816 55.6495L28.5 58M6.21248 46.798C6.11183 46.9224 6.01324 47.0444 5.91686 47.1636C6.2836 50.7403 18.7424 61.4377 28.2607 58.8782L28.5 58M6.21248 46.798C11.5202 52.5746 17 58 28.5 58" stroke="black"/>
</g>
<defs>
<clipPath id="clip0_16_2">
<rect width="60" height="60" fill="white"/>
</clipPath>
</defs>
</svg>
