<svg width="60" height="60" viewBox="0 0 60 60" fill="none" xmlns="http://www.w3.org/2000/svg">
<path d="M28.8498 32.0512C26.6627 41.8308 22.702 42.1353 15.1182 42.1353C7.5345 42.1353 4.12739 42.1353 1.38667 32.0512C-0.92048 23.5623 7.5345 23.2544 15.1182 23.2544C22.702 23.2544 30.7697 23.4665 28.8498 32.0512Z" fill="#08D9D6"/>
<path d="M31.8388 32.0512C33.9705 42.1353 38.5385 42.1353 45.5703 42.1353C53.1541 42.1353 56.5062 42.1353 59.3019 32.0512C61.6521 23.5741 53.1541 23.2544 45.5703 23.2544C37.9866 23.2544 30.0193 23.4446 31.8388 32.0512Z" fill="#08D9D6"/>
<path d="M27.2656 26.814C30.132 25.3956 31.6448 25.5456 34.2698 26.814" stroke="#08D9D6" stroke-width="2.62658"/>
<path d="M55.0281 26.7323C46.1445 19.7064 35.5171 10.6944 36.7487 17.7654" stroke="#08D9D6" stroke-width="2.62658"/>
<path d="M4.80489 26.6371C13.3554 19.8491 23.5741 11.1291 22.493 18.0926" stroke="#08D9D6" stroke-width="2.62658"/>
<rect x="36.0215" y="32.7466" width="9.59734" height="1.64689" rx="0.823447" transform="rotate(-41.5878 36.0215 32.7466)" fill="black"/>
<rect x="5.37793" y="32.6382" width="9.43397" height="1.55495" rx="0.777477" transform="rotate(-41.5878 5.37793 32.6382)" fill="black"/>
</svg>
