<svg width="60" height="60" viewBox="0 0 60 60" fill="none" xmlns="http://www.w3.org/2000/svg">
<rect x="48.1982" y="5.08643" width="8.4449" height="53.7807" transform="rotate(43.1507 48.1982 5.08643)" fill="#08D9D6"/>
<path d="M21.7702 46.7028L28.1124 39.9373C28.6053 39.4116 28.8465 38.9879 28.8361 38.6662C28.8534 38.3705 28.5853 37.9632 28.0319 37.4444L17.1989 27.2891C15.0129 25.2398 14.9445 23.1222 16.9937 20.9362L23.9974 13.4652C26.0467 11.2792 28.1643 11.2108 30.3503 13.26L47.0772 28.9406C49.2632 30.9898 49.3315 33.1074 47.2823 35.2934L42.7688 40.1081L34.7581 32.5985L38.8436 28.2404C39.3624 27.687 39.6037 27.2633 39.5673 26.9693C39.557 26.6477 39.2889 26.2404 38.7631 25.7475L34.073 21.3508C33.5196 20.832 33.082 20.5778 32.7604 20.5882C32.4923 20.5968 32.0989 20.8778 31.5801 21.4313L25.4324 27.9892C24.9136 28.5426 24.6456 28.9672 24.6283 29.2629C24.6646 29.5569 24.9595 29.9633 25.5129 30.4821L36.3459 40.6375C38.5319 42.6867 38.6003 44.8043 36.5511 46.9903L29.3528 54.6689C27.3036 56.8549 25.186 56.9232 23 54.874L6.27308 39.1935C4.0871 37.1443 4.01872 35.0266 6.06796 32.8407L10.5815 28.026L18.5921 35.5355L14.5066 39.8936C13.9878 40.447 13.7336 40.8846 13.744 41.2062C13.7803 41.5002 14.0614 41.8937 14.5871 42.3865L19.2773 46.7833C19.8307 47.3021 20.2414 47.5571 20.5095 47.5485C20.8311 47.5381 21.2514 47.2562 21.7702 46.7028Z" fill="#08D9D6"/>
<rect x="49.9219" width="12.4451" height="13.3341" rx="2.22234" transform="rotate(43.1507 49.9219 0)" fill="#08D9D6"/>
<rect x="52.5137" y="2.43115" width="0.888937" height="55.5586" transform="rotate(43.1507 52.5137 2.43115)" fill="black"/>
<rect x="54.4609" y="4.25635" width="0.888937" height="55.5586" transform="rotate(43.1507 54.4609 4.25635)" fill="black"/>
<rect x="56.4062" y="6.0791" width="0.888937" height="55.5586" transform="rotate(43.1507 56.4062 6.0791)" fill="black"/>
</svg>
