<svg width="55" height="51" viewBox="0 0 55 51" fill="none" xmlns="http://www.w3.org/2000/svg">
<g clip-path="url(#clip0_394_87)">
<rect x="42.0283" y="4.5293" width="7.51997" height="47.8904" transform="rotate(43.1507 42.0283 4.5293)" fill="#08D9D6"/>
<path d="M18.5988 41.4766L24.2464 35.4521C24.6853 34.984 24.9001 34.6067 24.8909 34.3202C24.9063 34.0569 24.6676 33.6943 24.1748 33.2323L14.5282 24.1892C12.5816 22.3644 12.5207 20.4787 14.3455 18.5321L20.5822 11.8793C22.407 9.93277 24.2926 9.87188 26.2392 11.6967L41.1341 25.6598C43.0807 27.4846 43.1415 29.3703 41.3167 31.3168L37.2976 35.6042L30.1643 28.9171L33.8023 25.0363C34.2643 24.5435 34.4791 24.1662 34.4468 23.9044C34.4375 23.618 34.1988 23.2554 33.7307 22.8165L29.5542 18.9013C29.0614 18.4393 28.6718 18.2129 28.3853 18.2222C28.1466 18.2299 27.7963 18.4801 27.3343 18.9729L21.86 24.8126C21.398 25.3054 21.1593 25.6835 21.1439 25.9468C21.1763 26.2086 21.4388 26.5705 21.9316 27.0325L31.5782 36.0756C33.5248 37.9004 33.5856 39.7861 31.7609 41.7326L25.351 48.5702C23.5262 50.5168 21.6405 50.5777 19.694 48.7529L4.79906 34.7898C2.8525 32.965 2.79161 31.0793 4.6164 29.1327L8.63556 24.8454L15.7689 31.5324L12.1308 35.4132C11.6688 35.906 11.4425 36.2956 11.4517 36.5821C11.4841 36.8439 11.7343 37.1942 12.2025 37.6331L16.379 41.5483C16.8718 42.0103 17.2375 42.2374 17.4762 42.2297C17.7627 42.2204 18.1369 41.9694 18.5988 41.4766Z" fill="#08D9D6"/>
<rect x="43.5625" width="11.0821" height="11.8736" rx="1.97894" transform="rotate(43.1507 43.5625 0)" fill="#08D9D6"/>
<rect x="45.8711" y="2.16504" width="0.791576" height="49.4735" transform="rotate(43.1507 45.8711 2.16504)" fill="black"/>
<rect x="47.6045" y="3.79004" width="0.791576" height="49.4735" transform="rotate(43.1507 47.6045 3.79004)" fill="black"/>
<rect x="49.3369" y="5.41357" width="0.791576" height="49.4735" transform="rotate(43.1507 49.3369 5.41357)" fill="black"/>
</g>
<defs>
<clipPath id="clip0_394_87">
<rect width="55" height="51" fill="white"/>
</clipPath>
</defs>
</svg>
