<svg width="60" height="60" viewBox="0 0 60 60" fill="none" xmlns="http://www.w3.org/2000/svg">
<circle cx="30" cy="30" r="30" fill="#08D9D6"/>
<path d="M7.08179 27.2677C7.08179 28.0669 6.8699 29.8996 6.02231 30.8364C4.96283 32.0074 7.13755 38.4201 8.30856 38.7547C9.47956 39.0892 11.5428 42.658 11.8773 46.5613C12.2119 50.4647 17.2862 56.4312 19.2937 55.5948C21.3011 54.7584 13.9963 53.2528 19.2937 48.1784C19.8699 47.4164 20.9442 45.7138 20.632 45C20.2416 44.1078 29.052 39.0892 26.5985 34.9628C24.145 30.8364 22.1375 35.3532 17.1747 28.2714C13.1964 22.5945 8.82399 25.0157 7.47552 26.487C7.14181 26.8511 6.9933 27.157 7.08179 27.2677Z" fill="black"/>
<path d="M7.08179 27.2677C6.9933 27.157 7.14181 26.8511 7.47552 26.487C6.74722 25.7621 6.24536 25.8736 5.91079 26.0967C5.57621 26.3197 5.35317 25.0372 5.46469 24.5911C5.57622 24.145 6.41265 22.5837 5.24164 21.9703C4.07064 21.3569 6.35689 19.9628 6.02231 19.7955C5.68774 19.6283 5.57622 19.1264 5.07436 19.7955C4.5725 20.4647 3.12268 22.1933 3.84759 18.8476C4.5725 15.5019 8.02975 14.6654 8.36432 15.6134C8.69889 16.5613 8.64313 17.8996 9.4238 17.5651C10.2045 17.2305 8.86618 15.7249 9.81414 14.8885C10.7621 14.0521 11.8773 12.1561 12.2119 11.5428C12.5465 10.9294 16.0037 8.86618 17.4535 8.69889C18.9033 8.53161 18.1784 7.02603 17.7323 6.69146C17.2862 6.35688 15.948 6.30112 15.6134 5.91079C15.2788 5.52045 14.6097 4.34945 14.1078 4.5725C13.6059 4.79555 11.5578 6.1896 9.4946 8.08551C7.4314 9.98142 3.90929 14.2555 3.80688 15.948C3.62334 18.9811 1.05949 20.9666 3.06692 22.2491C5.07436 23.5316 4.62826 24.7584 4.85131 25.4275C5.07436 26.0967 5.2974 26.9331 5.91079 26.8216C6.40149 26.7324 6.89592 27.0818 7.08179 27.2677Z" fill="black"/>
<path d="M48.6245 47.6766C48.9963 46.2268 49.6282 42.9368 49.1821 41.3755C48.6245 39.4238 50.2416 38.0297 50.4647 36.2454C50.6877 34.461 50.855 26.2639 43.2156 28.9405C38.5316 28.9405 36.5056 25.3346 36.0781 23.5316C36.2639 21.0037 36.9702 15.7249 38.3085 14.8327C39.9814 13.7175 44.9442 11.0967 45.5576 12.3792C46.171 13.6617 49.7955 15.6134 49.7955 15.2231C49.7955 14.9108 51.9517 15.0929 53.0297 15.2231L56.3197 19.5725L58.7732 23.5316C60.2694 30.0828 58.5328 45.0147 50.4647 47.6766C49.0818 47.855 48.6617 47.7509 48.6245 47.6766Z" fill="black"/>
<path d="M41.4312 12.1561C40.5204 12.3978 38.6208 12.7361 38.3085 12.1561C37.9182 11.4312 38.5316 11.3755 38.3085 10.9851C38.0855 10.5948 37.1933 9.70261 38.5316 9.81413C39.8699 9.92566 40.0929 10.0929 40.1487 9.81413C40.2044 9.53532 40.4833 9.53532 40.316 9.20075C40.1487 8.86618 38.0855 8.19703 39.9814 7.19332C41.8773 6.1896 40.316 5.96655 40.316 5.7435C40.316 5.52045 41.1524 5.7435 41.4312 6.02231C41.71 6.30112 42.3234 6.07807 42.4349 5.91079C42.5465 5.7435 42.881 5.40893 42.7695 5.01859C42.658 4.62826 42.9368 3.90335 42.4349 4.07064C41.9331 4.23793 41.0966 4.01488 40.8178 3.73607C40.539 3.45726 42.1561 5.13012 42.1004 5.35317C42.0557 5.53161 41.8959 5.61339 41.8215 5.63198C41.3754 5.4461 40.4833 5.0186 40.4833 4.79555C40.4833 4.51674 37.5836 5.24164 38.3085 3.56878C37.3606 2.28625 37.4721 2.11897 37.6952 2.00744C37.9182 1.89592 40.6505 2.34201 40.8178 2.56506C41.0037 2.52789 41.5137 2.57665 42.1004 2.56506C42.9917 2.54745 49.6081 6.75704 49.7955 7.63941C49.9829 8.52179 51.803 10.0929 51.6357 10.2602C51.4684 10.4275 48.8476 8.75465 48.7918 8.36432C48.736 7.97398 47.2305 8.36432 48.0111 9.31227C48.7918 10.2602 49.2937 10.6506 49.1821 10.8179C49.0706 10.9851 48.4015 10.316 48.4015 10.7063C48.4015 11.0967 49.9628 12.8253 49.1821 12.6022C48.4015 12.3792 46.5613 9.92566 46.5056 10.0929C46.4498 10.2602 44.052 8.47584 44.1636 8.69889C44.2751 8.92194 44.1636 9.70261 45.1115 9.98142C46.0595 10.2602 46.7286 10.8736 46.7286 10.8179C46.7286 10.7621 47.2862 11.487 47.1189 11.8216C46.9517 12.1561 46.7286 12.3234 46.6171 12.3792C46.5056 12.435 45.8364 12.3234 46.0037 12.1561C46.171 11.9889 46.8959 11.5985 46.4498 11.2639C46.0037 10.9294 44.3866 10.316 44.1636 9.98142C43.9405 9.64685 43.6059 9.25651 42.9925 9.81413C42.3792 10.3718 43.0483 11.6543 42.7137 11.8216C42.4461 11.9554 41.7472 12.1004 41.4312 12.1561Z" fill="black"/>
<path d="M52.3048 12.9368C52.8067 13.1598 53.1413 14.4424 52.974 15.1673C52.8067 15.8922 58.5502 23.3085 58.3829 22.8624C58.2156 22.4163 57.9926 20.3531 57.9368 19.7955C57.8922 19.3494 56.2454 16.71 55.4275 15.4461C55.7621 15.7249 56.3866 16.171 56.2082 15.7249C55.9851 15.1673 53.9777 12.9368 53.3085 11.8773C52.6394 10.8178 51.4126 10.3717 51.4126 10.7063C51.4126 11.0409 50.7993 10.4275 49.8513 10.539C48.9033 10.6505 49.9628 12.1004 50.3532 12.4349C50.7435 12.7695 51.803 12.7137 52.3048 12.9368Z" fill="black"/>
</svg>
